solid OpenSCAD_Model
  facet normal -0.78169024 0.43347242 0.4483994
    outer loop
      vertex -41.266365 -13.65636 33.978085
      vertex -39.1068 -13.382562 37.47815
      vertex -40.81411 -12.773001 33.912544
    endloop
  endfacet
  facet normal -0.78169084 0.43347085 0.4483999
    outer loop
      vertex -39.1068 -13.382562 37.47815
      vertex -41.266365 -13.65636 33.978085
      vertex -39.559055 -14.265921 37.543686
    endloop
  endfacet
  facet normal 0.12097351 0.98646206 0.11071598
    outer loop
      vertex -19.707129 -9.977473 28.771152
      vertex -22.080778 -9.322871 25.532312
      vertex -20.373465 -9.932432 29.097914
    endloop
  endfacet
  facet normal 0.12097326 0.98646206 0.11071617
    outer loop
      vertex -22.080778 -9.322871 25.532312
      vertex -19.707129 -9.977473 28.771152
      vertex -21.41444 -9.367912 25.205551
    endloop
  endfacet
  facet normal -0.54817224 0.7403692 0.38905096
    outer loop
      vertex -40.09877 -12.121861 33.681335
      vertex -39.1068 -13.382562 37.47815
      vertex -38.391457 -12.731422 37.24694
    endloop
  endfacet
  facet normal -0.54817396 0.7403679 0.38905096
    outer loop
      vertex -39.1068 -13.382562 37.47815
      vertex -40.09877 -12.121861 33.681335
      vertex -40.81411 -12.773001 33.912544
    endloop
  endfacet
  facet normal 0.8742791 0.32153845 -0.36366066
    outer loop
      vertex -20.091808 -10.535367 24.372654
      vertex -18.384497 -11.144928 27.938257
      vertex -20.068045 -10.631423 24.344854
    endloop
  endfacet
  facet normal 0.8742793 0.32153636 -0.36366203
    outer loop
      vertex -20.068045 -10.631423 24.344854
      vertex -20.075281 -11.388643 23.657951
      vertex -20.28146 -10.555227 23.899153
    endloop
  endfacet
  facet normal 0.87427944 0.3215371 -0.36366102
    outer loop
      vertex -18.154554 -12.0744 27.669254
      vertex -20.068045 -10.631423 24.344854
      vertex -18.384497 -11.144928 27.938257
    endloop
  endfacet
  facet normal 0.8742796 0.32153594 -0.36366162
    outer loop
      vertex -20.068045 -10.631423 24.344854
      vertex -18.154554 -12.0744 27.669254
      vertex -20.075281 -11.388643 23.657951
    endloop
  endfacet
  facet normal 0.4547267 0.88819003 -0.065894686
    outer loop
      vertex -18.929688 -10.408586 28.325191
      vertex -21.41444 -9.367912 25.205551
      vertex -19.707129 -9.977473 28.771152
    endloop
  endfacet
  facet normal 0.4547266 0.8881901 -0.065894604
    outer loop
      vertex -21.41444 -9.367912 25.205551
      vertex -18.929688 -10.408586 28.325191
      vertex -20.637 -9.799025 24.759588
    endloop
  endfacet
  facet normal 0.71925324 0.6546988 -0.23247416
    outer loop
      vertex -18.384497 -11.144928 27.938257
      vertex -20.637 -9.799025 24.759588
      vertex -18.929688 -10.408586 28.325191
    endloop
  endfacet
  facet normal 0.71925324 0.6546988 -0.23247416
    outer loop
      vertex -20.637 -9.799025 24.759588
      vertex -18.384497 -11.144928 27.938257
      vertex -20.091808 -10.535367 24.372654
    endloop
  endfacet
  facet normal -0.45472738 -0.8881897 0.06589507
    outer loop
      vertex -40.611546 -16.303272 33.212032
      vertex -38.126797 -17.343945 36.331673
      vertex -38.904236 -16.912832 36.777634
    endloop
  endfacet
  facet normal -0.45472738 -0.8881897 0.06589507
    outer loop
      vertex -38.126797 -17.343945 36.331673
      vertex -40.611546 -16.303272 33.212032
      vertex -39.834106 -16.734385 32.76607
    endloop
  endfacet
  facet normal -0.8742779 -0.32153592 0.36366585
    outer loop
      vertex -41.1805 -15.470873 33.626766
      vertex -41.600094 -14.561262 33.422268
      vertex -41.393917 -15.394678 33.181065
    endloop
  endfacet
  facet normal -0.8742792 -0.3215376 0.3636611
    outer loop
      vertex -41.600094 -14.561262 33.422268
      vertex -41.1805 -15.470873 33.626766
      vertex -39.679367 -15.247019 37.43357
    endloop
  endfacet
  facet normal -0.8742842 -0.32151705 0.3636673
    outer loop
      vertex -39.449425 -16.17649 37.16457
      vertex -41.1805 -15.470873 33.626766
      vertex -41.15674 -15.566929 33.59897
    endloop
  endfacet
  facet normal -0.8742796 -0.32153645 0.3636612
    outer loop
      vertex -41.1805 -15.470873 33.626766
      vertex -39.449425 -16.17649 37.16457
      vertex -39.679367 -15.247019 37.43357
    endloop
  endfacet
  facet normal 0.78169143 -0.43346947 -0.44840014
    outer loop
      vertex -18.27487 -13.055497 27.559141
      vertex -20.434435 -13.329295 24.059074
      vertex -19.982182 -12.445936 23.993538
    endloop
  endfacet
  facet normal 0.78169143 -0.43346947 -0.44840014
    outer loop
      vertex -20.434435 -13.329295 24.059074
      vertex -18.27487 -13.055497 27.559141
      vertex -18.727123 -13.938856 27.624678
    endloop
  endfacet
  facet normal 0.23119885 -0.93455434 -0.2704723
    outer loop
      vertex -21.149776 -13.980434 24.290285
      vertex -20.0925 -14.829061 28.126272
      vertex -21.799812 -14.2195 24.56067
    endloop
  endfacet
  facet normal 0.23119885 -0.93455434 -0.2704723
    outer loop
      vertex -20.0925 -14.829061 28.126272
      vertex -21.149776 -13.980434 24.290285
      vertex -19.442465 -14.589995 27.855886
    endloop
  endfacet
  facet normal 0.42682758 -0.15239151 0.89140064
    outer loop
      vertex -19.626934 -11.906074 28.403048
      vertex -18.154554 -12.0744 27.669254
      vertex -18.384497 -11.144928 27.938257
    endloop
  endfacet
  facet normal 0.4268283 -0.15238959 0.8914006
    outer loop
      vertex -18.154554 -12.0744 27.669254
      vertex -19.534958 -12.277863 28.295448
      vertex -18.27487 -13.055497 27.559141
    endloop
  endfacet
  facet normal 0.42682728 -0.15239008 0.891401
    outer loop
      vertex -19.845009 -11.611536 28.557821
      vertex -18.384497 -11.144928 27.938257
      vertex -18.929688 -10.408586 28.325191
    endloop
  endfacet
  facet normal 0.42682803 -0.1523901 0.89140064
    outer loop
      vertex -19.583082 -12.670301 28.251402
      vertex -18.27487 -13.055497 27.559141
      vertex -19.534958 -12.277863 28.295448
    endloop
  endfacet
  facet normal 0.4268277 -0.15239112 0.89140064
    outer loop
      vertex -19.763985 -13.023645 28.277617
      vertex -18.27487 -13.055497 27.559141
      vertex -19.583082 -12.670301 28.251402
    endloop
  endfacet
  facet normal 0.42682818 -0.1523877 0.891401
    outer loop
      vertex -18.154554 -12.0744 27.669254
      vertex -19.626934 -11.906074 28.403048
      vertex -19.534958 -12.277863 28.295448
    endloop
  endfacet
  facet normal 0.42682737 -0.15238951 0.89140105
    outer loop
      vertex -20.155985 -11.439093 28.736206
      vertex -18.929688 -10.408586 28.325191
      vertex -19.707129 -9.977473 28.771152
    endloop
  endfacet
  facet normal 0.4268276 -0.15239157 0.8914006
    outer loop
      vertex -18.384497 -11.144928 27.938257
      vertex -19.845009 -11.611536 28.557821
      vertex -19.626934 -11.906074 28.403048
    endloop
  endfacet
  facet normal 0.4268284 -0.15239108 0.8914003
    outer loop
      vertex -18.929688 -10.408586 28.325191
      vertex -20.155985 -11.439093 28.736206
      vertex -19.845009 -11.611536 28.557821
    endloop
  endfacet
  facet normal 0.42682862 -0.15238988 0.8914004
    outer loop
      vertex -20.373465 -9.932432 29.097914
      vertex -20.155985 -11.439093 28.736206
      vertex -19.707129 -9.977473 28.771152
    endloop
  endfacet
  facet normal 0.4268296 -0.15238965 0.8914
    outer loop
      vertex -20.373465 -9.932432 29.097914
      vertex -20.512518 -11.414992 28.911045
      vertex -20.155985 -11.439093 28.736206
    endloop
  endfacet
  facet normal 0.42682892 -0.15238962 0.8914003
    outer loop
      vertex -20.373465 -9.932432 29.097914
      vertex -20.860329 -11.542908 29.05572
      vertex -20.512518 -11.414992 28.911045
    endloop
  endfacet
  facet normal 0.4268255 -0.15238862 0.8914021
    outer loop
      vertex -20.373465 -9.932432 29.097914
      vertex -21.146465 -11.803363 29.148203
      vertex -20.860329 -11.542908 29.05572
    endloop
  endfacet
  facet normal 0.4268278 -0.15238962 0.8914008
    outer loop
      vertex -26.225016 -12.011561 31.544363
      vertex -21.146465 -11.803363 29.148203
      vertex -20.373465 -9.932432 29.097914
    endloop
  endfacet
  facet normal 0.42682812 -0.15239176 0.89140034
    outer loop
      vertex -21.327366 -12.156706 29.174417
      vertex -25.92609 -13.219874 31.194662
      vertex -21.375492 -12.549146 29.130371
    endloop
  endfacet
  facet normal 0.4268278 -0.15238926 0.8914009
    outer loop
      vertex -21.146465 -11.803363 29.148203
      vertex -26.225016 -12.011561 31.544363
      vertex -21.327366 -12.156706 29.174417
    endloop
  endfacet
  facet normal 0.4268278 -0.15238936 0.8914009
    outer loop
      vertex -21.327366 -12.156706 29.174417
      vertex -26.225016 -12.011561 31.544363
      vertex -25.92609 -13.219874 31.194662
    endloop
  endfacet
  facet normal 0.42682794 -0.15239027 0.89140064
    outer loop
      vertex -20.373465 -9.932432 29.097914
      vertex -26.933764 -11.054316 32.04738
      vertex -26.225016 -12.011561 31.544363
    endloop
  endfacet
  facet normal 0.42682886 -0.15240188 0.89139825
    outer loop
      vertex -26.933764 -11.054316 32.04738
      vertex -20.373465 -9.932432 29.097914
      vertex -27.154497 -10.931912 32.174
    endloop
  endfacet
  facet normal 0.42682782 -0.15238994 0.89140075
    outer loop
      vertex -18.27487 -13.055497 27.559141
      vertex -19.763985 -13.023645 28.277617
      vertex -18.727123 -13.938856 27.624678
    endloop
  endfacet
  facet normal 0.4268269 -0.15239114 0.891401
    outer loop
      vertex -20.050121 -13.2841 28.3701
      vertex -18.727123 -13.938856 27.624678
      vertex -19.763985 -13.023645 28.277617
    endloop
  endfacet
  facet normal 0.42682716 -0.15239054 0.891401
    outer loop
      vertex -18.727123 -13.938856 27.624678
      vertex -20.050121 -13.2841 28.3701
      vertex -19.442465 -14.589995 27.855886
    endloop
  endfacet
  facet normal 0.4268306 -0.15238844 0.8913997
    outer loop
      vertex -20.39793 -13.412015 28.514774
      vertex -19.442465 -14.589995 27.855886
      vertex -20.050121 -13.2841 28.3701
    endloop
  endfacet
  facet normal 0.42682785 -0.15239115 0.8914005
    outer loop
      vertex -19.442465 -14.589995 27.855886
      vertex -20.39793 -13.412015 28.514774
      vertex -20.0925 -14.829061 28.126272
    endloop
  endfacet
  facet normal 0.4268258 -0.15239182 0.8914014
    outer loop
      vertex -20.754463 -13.387916 28.689611
      vertex -20.0925 -14.829061 28.126272
      vertex -20.39793 -13.412015 28.514774
    endloop
  endfacet
  facet normal 0.42682853 -0.15239018 0.8914004
    outer loop
      vertex -21.06544 -13.215471 28.867996
      vertex -20.0925 -14.829061 28.126272
      vertex -20.754463 -13.387916 28.689611
    endloop
  endfacet
  facet normal 0.4268278 -0.15238884 0.89140093
    outer loop
      vertex -26.0825 -14.4953 31.051514
      vertex -21.06544 -13.215471 28.867996
      vertex -21.283516 -12.920934 29.02277
    endloop
  endfacet
  facet normal 0.42682815 -0.15239243 0.89140016
    outer loop
      vertex -25.92609 -13.219874 31.194662
      vertex -21.283516 -12.920934 29.02277
      vertex -21.375492 -12.549146 29.130371
    endloop
  endfacet
  facet normal 0.42682818 -0.15239055 0.8914005
    outer loop
      vertex -26.0825 -14.4953 31.051514
      vertex -21.283516 -12.920934 29.02277
      vertex -25.92609 -13.219874 31.194662
    endloop
  endfacet
  facet normal 0.42682806 -0.15239054 0.8914006
    outer loop
      vertex -21.06544 -13.215471 28.867996
      vertex -26.0825 -14.4953 31.051514
      vertex -20.0925 -14.829061 28.126272
    endloop
  endfacet
  facet normal 0.42682815 -0.15238975 0.89140064
    outer loop
      vertex -26.67043 -15.643668 31.136711
      vertex -20.0925 -14.829061 28.126272
      vertex -26.0825 -14.4953 31.051514
    endloop
  endfacet
  facet normal 0.42682832 -0.1523947 0.8913997
    outer loop
      vertex -20.0925 -14.829061 28.126272
      vertex -26.67043 -15.643668 31.136711
      vertex -26.873531 -15.828541 31.202356
    endloop
  endfacet
  facet normal 0.42682785 -0.15238911 0.8914009
    outer loop
      vertex -36.550407 -14.400484 36.080055
      vertex -31.907833 -14.101544 33.908165
      vertex -31.751423 -12.8261175 34.05131
    endloop
  endfacet
  facet normal 0.42682794 -0.15239048 0.89140064
    outer loop
      vertex -37.74142 -12.492357 36.97655
      vertex -31.751423 -12.8261175 34.05131
      vertex -31.163492 -11.677751 33.966114
    endloop
  endfacet
  facet normal 0.42682844 -0.1524038 0.8913981
    outer loop
      vertex -37.74142 -12.492357 36.97655
      vertex -31.163492 -11.677751 33.966114
      vertex -30.96039 -11.492877 33.90047
    endloop
  endfacet
  facet normal 0.42682782 -0.15239218 0.8914004
    outer loop
      vertex -31.907833 -14.101544 33.908165
      vertex -36.550407 -14.400484 36.080055
      vertex -36.45843 -14.772273 35.972454
    endloop
  endfacet
  facet normal 0.42682827 -0.15239097 0.8914004
    outer loop
      vertex -31.751423 -12.8261175 34.05131
      vertex -36.768482 -14.105947 36.23483
      vertex -36.550407 -14.400484 36.080055
    endloop
  endfacet
  facet normal 0.42682806 -0.15238956 0.8914007
    outer loop
      vertex -31.751423 -12.8261175 34.05131
      vertex -37.74142 -12.492357 36.97655
      vertex -36.768482 -14.105947 36.23483
    endloop
  endfacet
  facet normal 0.42681953 -0.15239605 0.8914037
    outer loop
      vertex -36.768482 -14.105947 36.23483
      vertex -37.74142 -12.492357 36.97655
      vertex -37.07946 -13.933503 36.41321
    endloop
  endfacet
  facet normal 0.4268299 -0.15238976 0.8913998
    outer loop
      vertex -37.07946 -13.933503 36.41321
      vertex -37.74142 -12.492357 36.97655
      vertex -37.435993 -13.909404 36.58805
    endloop
  endfacet
  facet normal 0.42683172 -0.15238917 0.891399
    outer loop
      vertex -38.391457 -12.731422 37.24694
      vertex -37.435993 -13.909404 36.58805
      vertex -37.74142 -12.492357 36.97655
    endloop
  endfacet
  facet normal 0.42683396 -0.15238696 0.8913983
    outer loop
      vertex -37.435993 -13.909404 36.58805
      vertex -38.391457 -12.731422 37.24694
      vertex -37.783802 -14.037318 36.732727
    endloop
  endfacet
  facet normal 0.42682678 -0.15239136 0.891401
    outer loop
      vertex -39.1068 -13.382562 37.47815
      vertex -37.783802 -14.037318 36.732727
      vertex -38.391457 -12.731422 37.24694
    endloop
  endfacet
  facet normal 0.42682722 -0.15239055 0.89140093
    outer loop
      vertex -39.559055 -14.265921 37.543686
      vertex -38.06994 -14.297773 36.82521
      vertex -39.1068 -13.382562 37.47815
    endloop
  endfacet
  facet normal 0.42682707 -0.15239076 0.891401
    outer loop
      vertex -37.783802 -14.037318 36.732727
      vertex -39.1068 -13.382562 37.47815
      vertex -38.06994 -14.297773 36.82521
    endloop
  endfacet
  facet normal 0.42682782 -0.15239203 0.8914004
    outer loop
      vertex -36.45843 -14.772273 35.972454
      vertex -31.608908 -15.309857 33.55846
      vertex -31.907833 -14.101544 33.908165
    endloop
  endfacet
  facet normal 0.42682847 -0.1523879 0.8914008
    outer loop
      vertex -36.506557 -15.164712 35.92841
      vertex -31.608908 -15.309857 33.55846
      vertex -36.45843 -14.772273 35.972454
    endloop
  endfacet
  facet normal 0.42682835 -0.15238914 0.89140064
    outer loop
      vertex -36.687458 -15.518056 35.954624
      vertex -31.608908 -15.309857 33.55846
      vertex -36.506557 -15.164712 35.92841
    endloop
  endfacet
  facet normal 0.4268283 -0.15239121 0.89140034
    outer loop
      vertex -37.460457 -17.388987 36.00491
      vertex -31.608908 -15.309857 33.55846
      vertex -36.687458 -15.518056 35.954624
    endloop
  endfacet
  facet normal 0.42682773 -0.15238886 0.891401
    outer loop
      vertex -31.608908 -15.309857 33.55846
      vertex -37.460457 -17.388987 36.00491
      vertex -30.90016 -16.267103 33.055447
    endloop
  endfacet
  facet normal 0.42682633 -0.15239038 0.8914014
    outer loop
      vertex -37.460457 -17.388987 36.00491
      vertex -36.687458 -15.518056 35.954624
      vertex -36.973595 -15.77851 36.047108
    endloop
  endfacet
  facet normal 0.42682704 -0.15239058 0.891401
    outer loop
      vertex -37.460457 -17.388987 36.00491
      vertex -36.973595 -15.77851 36.047108
      vertex -37.321404 -15.906425 36.19178
    endloop
  endfacet
  facet normal 0.42682883 -0.15240294 0.8913981
    outer loop
      vertex -30.90016 -16.267103 33.055447
      vertex -37.460457 -17.388987 36.00491
      vertex -30.679426 -16.389505 32.928825
    endloop
  endfacet
  facet normal 0.42682981 -0.15239067 0.8913997
    outer loop
      vertex -37.677937 -15.882326 36.36662
      vertex -37.460457 -17.388987 36.00491
      vertex -37.321404 -15.906425 36.19178
    endloop
  endfacet
  facet normal 0.42682433 -0.152386 0.89140314
    outer loop
      vertex -38.904236 -16.912832 36.777634
      vertex -37.677937 -15.882326 36.36662
      vertex -37.988914 -15.709882 36.545002
    endloop
  endfacet
  facet normal 0.42682838 -0.15239103 0.8914003
    outer loop
      vertex -37.677937 -15.882326 36.36662
      vertex -38.126797 -17.343945 36.331673
      vertex -37.460457 -17.388987 36.00491
    endloop
  endfacet
  facet normal 0.42682976 -0.15239005 0.8913998
    outer loop
      vertex -39.449425 -16.17649 37.16457
      vertex -37.988914 -15.709882 36.545002
      vertex -38.20699 -15.415345 36.699776
    endloop
  endfacet
  facet normal 0.42682892 -0.15239178 0.8913999
    outer loop
      vertex -39.679367 -15.247019 37.43357
      vertex -38.20699 -15.415345 36.699776
      vertex -38.298965 -15.043556 36.807377
    endloop
  endfacet
  facet normal 0.42682755 -0.15239078 0.89140075
    outer loop
      vertex -37.677937 -15.882326 36.36662
      vertex -38.904236 -16.912832 36.777634
      vertex -38.126797 -17.343945 36.331673
    endloop
  endfacet
  facet normal 0.4268274 -0.1523886 0.8914012
    outer loop
      vertex -38.06994 -14.297773 36.82521
      vertex -39.559055 -14.265921 37.543686
      vertex -38.25084 -14.651117 36.851425
    endloop
  endfacet
  facet normal 0.42682508 -0.15239617 0.891401
    outer loop
      vertex -38.25084 -14.651117 36.851425
      vertex -39.559055 -14.265921 37.543686
      vertex -38.298965 -15.043556 36.807377
    endloop
  endfacet
  facet normal 0.42682877 -0.15238956 0.8914004
    outer loop
      vertex -39.679367 -15.247019 37.43357
      vertex -38.298965 -15.043556 36.807377
      vertex -39.559055 -14.265921 37.543686
    endloop
  endfacet
  facet normal 0.42682934 -0.15238912 0.89140016
    outer loop
      vertex -38.20699 -15.415345 36.699776
      vertex -39.679367 -15.247019 37.43357
      vertex -39.449425 -16.17649 37.16457
    endloop
  endfacet
  facet normal 0.42682996 -0.15239097 0.89139956
    outer loop
      vertex -37.988914 -15.709882 36.545002
      vertex -39.449425 -16.17649 37.16457
      vertex -38.904236 -16.912832 36.777634
    endloop
  endfacet
  facet normal -0.2311976 0.93455476 0.27047187
    outer loop
      vertex -39.448734 -11.882796 33.41095
      vertex -38.391457 -12.731422 37.24694
      vertex -37.74142 -12.492357 36.97655
    endloop
  endfacet
  facet normal -0.23119892 0.9345544 0.27047214
    outer loop
      vertex -38.391457 -12.731422 37.24694
      vertex -39.448734 -11.882796 33.41095
      vertex -40.09877 -12.121861 33.681335
    endloop
  endfacet
  facet normal -0.71925265 -0.6546997 0.23247363
    outer loop
      vertex -38.904236 -16.912832 36.777634
      vertex -41.15674 -15.566929 33.59897
      vertex -40.611546 -16.303272 33.212032
    endloop
  endfacet
  facet normal -0.7192533 -0.6546986 0.23247455
    outer loop
      vertex -41.15674 -15.566929 33.59897
      vertex -38.904236 -16.912832 36.777634
      vertex -39.449425 -16.17649 37.16457
    endloop
  endfacet
  facet normal 0.896205 -0.0605778 -0.43948478
    outer loop
      vertex -19.969748 -12.344545 24.004917
      vertex -20.075281 -11.388643 23.657951
      vertex -18.154554 -12.0744 27.669254
    endloop
  endfacet
  facet normal 0.8962055 -0.060577437 -0.43948394
    outer loop
      vertex -20.075281 -11.388643 23.657951
      vertex -19.969748 -12.344545 24.004917
      vertex -20.18316 -12.26835 23.559217
    endloop
  endfacet
  facet normal 0.896205 -0.060579482 -0.43948466
    outer loop
      vertex -18.27487 -13.055497 27.559141
      vertex -19.969748 -12.344545 24.004917
      vertex -18.154554 -12.0744 27.669254
    endloop
  endfacet
  facet normal 0.8962047 -0.0605815 -0.43948492
    outer loop
      vertex -19.969748 -12.344545 24.004917
      vertex -18.27487 -13.055497 27.559141
      vertex -19.982182 -12.445936 23.993538
    endloop
  endfacet
  facet normal -0.120974295 -0.986462 -0.110715464
    outer loop
      vertex -39.834106 -16.734385 32.76607
      vertex -37.460457 -17.388987 36.00491
      vertex -38.126797 -17.343945 36.331673
    endloop
  endfacet
  facet normal -0.12097273 -0.98646206 -0.11071662
    outer loop
      vertex -37.460457 -17.388987 36.00491
      vertex -39.834106 -16.734385 32.76607
      vertex -39.16777 -16.779425 32.43931
    endloop
  endfacet
  facet normal -0.8962049 0.060576256 0.4394853
    outer loop
      vertex -41.600094 -14.561262 33.422268
      vertex -41.2788 -13.757751 33.9667
      vertex -41.492214 -13.681556 33.521004
    endloop
  endfacet
  facet normal -0.8962051 0.060576804 0.4394847
    outer loop
      vertex -39.679367 -15.247019 37.43357
      vertex -41.2788 -13.757751 33.9667
      vertex -41.600094 -14.561262 33.422268
    endloop
  endfacet
  facet normal -0.8962055 0.060575202 0.43948415
    outer loop
      vertex -41.2788 -13.757751 33.9667
      vertex -39.679367 -15.247019 37.43357
      vertex -39.559055 -14.265921 37.543686
    endloop
  endfacet
  facet normal -0.8962048 0.060581297 0.4394847
    outer loop
      vertex -41.266365 -13.65636 33.978085
      vertex -41.2788 -13.757751 33.9667
      vertex -39.559055 -14.265921 37.543686
    endloop
  endfacet
  facet normal 0.5481724 -0.74036896 -0.3890511
    outer loop
      vertex -20.434435 -13.329295 24.059074
      vertex -19.442465 -14.589995 27.855886
      vertex -21.149776 -13.980434 24.290285
    endloop
  endfacet
  facet normal 0.54817307 -0.74036855 -0.38905114
    outer loop
      vertex -19.442465 -14.589995 27.855886
      vertex -20.434435 -13.329295 24.059074
      vertex -18.727123 -13.938856 27.624678
    endloop
  endfacet
  facet normal -0.4268304 0.15238911 -0.8913997
    outer loop
      vertex -20.18316 -12.26835 23.559217
      vertex -20.28146 -10.555227 23.899153
      vertex -20.075281 -11.388643 23.657951
    endloop
  endfacet
  facet normal -0.42683265 0.15239117 -0.89139825
    outer loop
      vertex -41.393917 -15.394678 33.181065
      vertex -41.600094 -14.561262 33.422268
      vertex -41.492214 -13.681556 33.521004
    endloop
  endfacet
  facet normal -0.05619352 0.97932565 0.19432837
    outer loop
      vertex -27.154497 -10.931912 32.174
      vertex -27.612082 -10.353452 29.126505
      vertex -28.43498 -10.474742 29.499796
    endloop
  endfacet
  facet normal -0.056192946 0.9793257 0.19432828
    outer loop
      vertex -20.373465 -9.932432 29.097914
      vertex -27.612082 -10.353452 29.126505
      vertex -27.154497 -10.931912 32.174
    endloop
  endfacet
  facet normal -0.056192942 0.9793257 0.19432843
    outer loop
      vertex -22.080778 -9.322871 25.532312
      vertex -27.612082 -10.353452 29.126505
      vertex -20.373465 -9.932432 29.097914
    endloop
  endfacet
  facet normal -0.056192916 0.9793257 0.19432846
    outer loop
      vertex -27.612082 -10.353452 29.126505
      vertex -22.080778 -9.322871 25.532312
      vertex -28.03891 -10.201061 28.235104
    endloop
  endfacet
  facet normal -0.056193013 0.97932565 0.19432852
    outer loop
      vertex -33.063774 -11.156996 31.59956
      vertex -37.74142 -12.492357 36.97655
      vertex -30.96039 -11.492877 33.90047
    endloop
  endfacet
  facet normal -0.056193057 0.97932565 0.19432847
    outer loop
      vertex -37.74142 -12.492357 36.97655
      vertex -33.063774 -11.156996 31.59956
      vertex -39.448734 -11.882796 33.41095
    endloop
  endfacet
  facet normal -0.05619221 0.97932583 0.1943278
    outer loop
      vertex -33.063774 -11.156996 31.59956
      vertex -30.96039 -11.492877 33.90047
      vertex -32.240875 -11.0357065 31.226267
    endloop
  endfacet
  facet normal -0.056193344 0.97932583 0.19432753
    outer loop
      vertex -39.448734 -11.882796 33.41095
      vertex -33.063774 -11.156996 31.59956
      vertex -33.4906 -11.004606 30.708158
    endloop
  endfacet
  facet normal 0.056193452 -0.97932565 -0.1943285
    outer loop
      vertex -27.331118 -15.25008 28.154863
      vertex -26.873531 -15.828541 31.202356
      vertex -28.154016 -15.37137 28.528154
    endloop
  endfacet
  facet normal 0.056192942 -0.9793257 -0.19432843
    outer loop
      vertex -27.331118 -15.25008 28.154863
      vertex -20.0925 -14.829061 28.126272
      vertex -26.873531 -15.828541 31.202356
    endloop
  endfacet
  facet normal 0.05619349 -0.97932583 -0.1943276
    outer loop
      vertex -21.799812 -14.2195 24.56067
      vertex -27.331118 -15.25008 28.154863
      vertex -27.757944 -15.097691 27.263462
    endloop
  endfacet
  facet normal 0.056192946 -0.9793257 -0.1943284
    outer loop
      vertex -27.331118 -15.25008 28.154863
      vertex -21.799812 -14.2195 24.56067
      vertex -20.0925 -14.829061 28.126272
    endloop
  endfacet
  facet normal 0.056192946 -0.9793257 -0.19432837
    outer loop
      vertex -39.16777 -16.779425 32.43931
      vertex -33.209637 -15.901235 29.736517
      vertex -32.78281 -16.053625 30.627918
    endloop
  endfacet
  facet normal 0.056192864 -0.97932565 -0.19432864
    outer loop
      vertex -32.78281 -16.053625 30.627918
      vertex -37.460457 -17.388987 36.00491
      vertex -39.16777 -16.779425 32.43931
    endloop
  endfacet
  facet normal 0.05619306 -0.97932565 -0.19432847
    outer loop
      vertex -37.460457 -17.388987 36.00491
      vertex -32.78281 -16.053625 30.627918
      vertex -30.679426 -16.389505 32.928825
    endloop
  endfacet
  facet normal 0.05619294 -0.9793257 -0.19432837
    outer loop
      vertex -30.679426 -16.389505 32.928825
      vertex -32.78281 -16.053625 30.627918
      vertex -31.95991 -15.932335 30.254625
    endloop
  endfacet
  facet normal -0.71925336 -0.6546986 0.23247434
    outer loop
      vertex -26.96711 -11.224561 28.668753
      vertex -28.03891 -10.201061 28.235104
      vertex -27.393938 -11.07217 27.777351
    endloop
  endfacet
  facet normal -0.71925336 -0.6546986 0.23247434
    outer loop
      vertex -28.03891 -10.201061 28.235104
      vertex -26.96711 -11.224561 28.668753
      vertex -27.612082 -10.353452 29.126505
    endloop
  endfacet
  facet normal 0.7816917 -0.4334707 -0.4483986
    outer loop
      vertex -33.063774 -11.156996 31.59956
      vertex -34.025627 -12.049639 30.78569
      vertex -33.4906 -11.004606 30.708158
    endloop
  endfacet
  facet normal 0.7816916 -0.43346953 -0.4483998
    outer loop
      vertex -34.025627 -12.049639 30.78569
      vertex -33.063774 -11.156996 31.59956
      vertex -33.5988 -12.202029 31.67709
    endloop
  endfacet
  facet normal 0.8742801 0.3215369 -0.36365968
    outer loop
      vertex -33.42778 -15.182516 31.08567
      vertex -34.213318 -13.58015 30.61391
      vertex -33.78649 -13.73254 31.505312
    endloop
  endfacet
  facet normal 0.87427914 0.3215354 -0.36366326
    outer loop
      vertex -34.213318 -13.58015 30.61391
      vertex -33.42778 -15.182516 31.08567
      vertex -33.85461 -15.030126 30.19427
    endloop
  endfacet
  facet normal 0.7192534 0.65469795 -0.23247603
    outer loop
      vertex -32.78281 -16.053625 30.627918
      vertex -33.85461 -15.030126 30.19427
      vertex -33.42778 -15.182516 31.08567
    endloop
  endfacet
  facet normal 0.71925336 0.65469927 -0.23247267
    outer loop
      vertex -33.85461 -15.030126 30.19427
      vertex -32.78281 -16.053625 30.627918
      vertex -33.209637 -15.901235 29.736517
    endloop
  endfacet
  facet normal -0.8962047 0.060577597 0.43948546
    outer loop
      vertex -27.22292 -14.052657 27.18593
      vertex -26.6084 -12.674537 28.24911
      vertex -27.035229 -12.522146 27.35771
    endloop
  endfacet
  facet normal -0.896205 0.060578257 0.43948478
    outer loop
      vertex -26.6084 -12.674537 28.24911
      vertex -27.22292 -14.052657 27.18593
      vertex -26.796091 -14.205048 28.077332
    endloop
  endfacet
  facet normal -0.8742793 -0.32153627 0.3636621
    outer loop
      vertex -26.6084 -12.674537 28.24911
      vertex -27.393938 -11.07217 27.777351
      vertex -27.035229 -12.522146 27.35771
    endloop
  endfacet
  facet normal -0.8742795 -0.32153657 0.36366135
    outer loop
      vertex -27.393938 -11.07217 27.777351
      vertex -26.6084 -12.674537 28.24911
      vertex -26.96711 -11.224561 28.668753
    endloop
  endfacet
  facet normal -0.7816916 0.43346897 0.4484004
    outer loop
      vertex -27.757944 -15.097691 27.263462
      vertex -26.796091 -14.205048 28.077332
      vertex -27.22292 -14.052657 27.18593
    endloop
  endfacet
  facet normal -0.7816917 0.4334707 0.4483986
    outer loop
      vertex -26.796091 -14.205048 28.077332
      vertex -27.757944 -15.097691 27.263462
      vertex -27.331118 -15.25008 28.154863
    endloop
  endfacet
  facet normal 0.8962054 -0.06057786 -0.43948394
    outer loop
      vertex -33.5988 -12.202029 31.67709
      vertex -34.213318 -13.58015 30.61391
      vertex -34.025627 -12.049639 30.78569
    endloop
  endfacet
  facet normal 0.8962057 -0.060578518 -0.43948323
    outer loop
      vertex -34.213318 -13.58015 30.61391
      vertex -33.5988 -12.202029 31.67709
      vertex -33.78649 -13.73254 31.505312
    endloop
  endfacet
  facet normal -0.42682818 0.15238994 -0.8914006
    outer loop
      vertex -27.206575 -12.762703 28.52046
      vertex -26.6084 -12.674537 28.24911
      vertex -26.796091 -14.205048 28.077332
    endloop
  endfacet
  facet normal -0.42682818 0.15238987 -0.89140064
    outer loop
      vertex -27.505499 -11.55439 28.870161
      vertex -26.6084 -12.674537 28.24911
      vertex -27.206575 -12.762703 28.52046
    endloop
  endfacet
  facet normal -0.42682835 0.1523901 -0.89140046
    outer loop
      vertex -27.362984 -14.03813 28.377312
      vertex -26.796091 -14.205048 28.077332
      vertex -27.331118 -15.25008 28.154863
    endloop
  endfacet
  facet normal -0.42682844 0.15238984 -0.8914005
    outer loop
      vertex -26.796091 -14.205048 28.077332
      vertex -27.362984 -14.03813 28.377312
      vertex -27.206575 -12.762703 28.52046
    endloop
  endfacet
  facet normal -0.42682764 0.15239018 -0.8914008
    outer loop
      vertex -27.331118 -15.25008 28.154863
      vertex -27.950914 -15.186498 28.46251
      vertex -27.362984 -14.03813 28.377312
    endloop
  endfacet
  facet normal -0.4268272 0.15239313 -0.8914005
    outer loop
      vertex -27.950914 -15.186498 28.46251
      vertex -27.331118 -15.25008 28.154863
      vertex -28.154016 -15.37137 28.528154
    endloop
  endfacet
  facet normal -0.42682657 0.15239143 -0.8914011
    outer loop
      vertex -26.6084 -12.674537 28.24911
      vertex -27.505499 -11.55439 28.870161
      vertex -26.96711 -11.224561 28.668753
    endloop
  endfacet
  facet normal -0.42682663 0.15239157 -0.89140105
    outer loop
      vertex -27.505499 -11.55439 28.870161
      vertex -27.612082 -10.353452 29.126505
      vertex -26.96711 -11.224561 28.668753
    endloop
  endfacet
  facet normal -0.42682788 0.15239134 -0.8914005
    outer loop
      vertex -28.214249 -10.597145 29.373178
      vertex -27.612082 -10.353452 29.126505
      vertex -27.505499 -11.55439 28.870161
    endloop
  endfacet
  facet normal -0.42682686 0.15238778 -0.8914016
    outer loop
      vertex -27.612082 -10.353452 29.126505
      vertex -28.214249 -10.597145 29.373178
      vertex -28.43498 -10.474742 29.499796
    endloop
  endfacet
  facet normal -0.42682827 0.15239684 -0.8913994
    outer loop
      vertex -32.78281 -16.053625 30.627918
      vertex -32.18064 -15.809932 30.381245
      vertex -31.95991 -15.932335 30.254625
    endloop
  endfacet
  facet normal -0.42682642 0.15239024 -0.89140135
    outer loop
      vertex -32.78281 -16.053625 30.627918
      vertex -32.889393 -14.852687 30.88426
      vertex -32.18064 -15.809932 30.381245
    endloop
  endfacet
  facet normal -0.42682967 0.15238965 -0.8913999
    outer loop
      vertex -33.42778 -15.182516 31.08567
      vertex -32.889393 -14.852687 30.88426
      vertex -32.78281 -16.053625 30.627918
    endloop
  endfacet
  facet normal -0.42682928 0.15238878 -0.8914003
    outer loop
      vertex -33.78649 -13.73254 31.505312
      vertex -32.889393 -14.852687 30.88426
      vertex -33.42778 -15.182516 31.08567
    endloop
  endfacet
  facet normal -0.42682886 0.15239541 -0.8913993
    outer loop
      vertex -32.443977 -11.220579 31.291912
      vertex -33.063774 -11.156996 31.59956
      vertex -32.240875 -11.0357065 31.226267
    endloop
  endfacet
  facet normal -0.4268296 0.15239055 -0.8913998
    outer loop
      vertex -33.031906 -12.368947 31.37711
      vertex -33.063774 -11.156996 31.59956
      vertex -32.443977 -11.220579 31.291912
    endloop
  endfacet
  facet normal -0.42682707 0.15239048 -0.891401
    outer loop
      vertex -33.5988 -12.202029 31.67709
      vertex -33.031906 -12.368947 31.37711
      vertex -33.188316 -13.644373 31.233961
    endloop
  endfacet
  facet normal -0.42682835 0.15238968 -0.8914006
    outer loop
      vertex -32.889393 -14.852687 30.88426
      vertex -33.78649 -13.73254 31.505312
      vertex -33.188316 -13.644373 31.233961
    endloop
  endfacet
  facet normal -0.42682838 0.15238994 -0.8914005
    outer loop
      vertex -33.5988 -12.202029 31.67709
      vertex -33.188316 -13.644373 31.233961
      vertex -33.78649 -13.73254 31.505312
    endloop
  endfacet
  facet normal -0.42682698 0.15239084 -0.891401
    outer loop
      vertex -33.031906 -12.368947 31.37711
      vertex -33.5988 -12.202029 31.67709
      vertex -33.063774 -11.156996 31.59956
    endloop
  endfacet
  facet normal 0.78169155 -0.43346873 -0.44840068
    outer loop
      vertex -31.163492 -11.677751 33.966114
      vertex -33.031906 -12.368947 31.37711
      vertex -32.443977 -11.220579 31.291912
    endloop
  endfacet
  facet normal 0.7816912 -0.43347013 -0.44840002
    outer loop
      vertex -33.031906 -12.368947 31.37711
      vertex -31.163492 -11.677751 33.966114
      vertex -31.751423 -12.8261175 34.05131
    endloop
  endfacet
  facet normal -0.8742797 -0.3215356 0.36366186
    outer loop
      vertex -25.92609 -13.219874 31.194662
      vertex -27.505499 -11.55439 28.870161
      vertex -27.206575 -12.762703 28.52046
    endloop
  endfacet
  facet normal -0.8742796 -0.3215367 0.36366102
    outer loop
      vertex -27.505499 -11.55439 28.870161
      vertex -25.92609 -13.219874 31.194662
      vertex -26.225016 -12.011561 31.544363
    endloop
  endfacet
  facet normal -0.89620495 0.060577624 0.43948495
    outer loop
      vertex -27.362984 -14.03813 28.377312
      vertex -25.92609 -13.219874 31.194662
      vertex -27.206575 -12.762703 28.52046
    endloop
  endfacet
  facet normal -0.89620507 0.06057906 0.43948457
    outer loop
      vertex -25.92609 -13.219874 31.194662
      vertex -27.362984 -14.03813 28.377312
      vertex -26.0825 -14.4953 31.051514
    endloop
  endfacet
  facet normal -0.71925247 -0.6546999 0.23247333
    outer loop
      vertex -26.225016 -12.011561 31.544363
      vertex -28.214249 -10.597145 29.373178
      vertex -27.505499 -11.55439 28.870161
    endloop
  endfacet
  facet normal -0.7192532 -0.65469867 0.23247479
    outer loop
      vertex -28.214249 -10.597145 29.373178
      vertex -26.225016 -12.011561 31.544363
      vertex -26.933764 -11.054316 32.04738
    endloop
  endfacet
  facet normal 0.71925336 0.65469843 -0.23247492
    outer loop
      vertex -30.90016 -16.267103 33.055447
      vertex -32.889393 -14.852687 30.88426
      vertex -31.608908 -15.309857 33.55846
    endloop
  endfacet
  facet normal 0.7192523 0.6547004 -0.23247264
    outer loop
      vertex -32.889393 -14.852687 30.88426
      vertex -30.90016 -16.267103 33.055447
      vertex -32.18064 -15.809932 30.381245
    endloop
  endfacet
  facet normal 0.4547249 0.8881911 -0.06589299
    outer loop
      vertex -30.679426 -16.389505 32.928825
      vertex -32.18064 -15.809932 30.381245
      vertex -30.90016 -16.267103 33.055447
    endloop
  endfacet
  facet normal 0.45472974 0.88818836 -0.06589645
    outer loop
      vertex -32.18064 -15.809932 30.381245
      vertex -30.679426 -16.389505 32.928825
      vertex -31.95991 -15.932335 30.254625
    endloop
  endfacet
  facet normal 0.54817134 -0.7403698 -0.3890511
    outer loop
      vertex -32.240875 -11.0357065 31.226267
      vertex -31.163492 -11.677751 33.966114
      vertex -32.443977 -11.220579 31.291912
    endloop
  endfacet
  facet normal 0.5481753 -0.7403665 -0.38905185
    outer loop
      vertex -31.163492 -11.677751 33.966114
      vertex -32.240875 -11.0357065 31.226267
      vertex -30.96039 -11.492877 33.90047
    endloop
  endfacet
  facet normal -0.45472702 -0.88818985 0.0658948
    outer loop
      vertex -28.43498 -10.474742 29.499796
      vertex -26.933764 -11.054316 32.04738
      vertex -27.154497 -10.931912 32.174
    endloop
  endfacet
  facet normal -0.45472994 -0.8881882 0.06589691
    outer loop
      vertex -26.933764 -11.054316 32.04738
      vertex -28.43498 -10.474742 29.499796
      vertex -28.214249 -10.597145 29.373178
    endloop
  endfacet
  facet normal -0.7816913 0.43346983 0.44840002
    outer loop
      vertex -27.950914 -15.186498 28.46251
      vertex -26.0825 -14.4953 31.051514
      vertex -27.362984 -14.03813 28.377312
    endloop
  endfacet
  facet normal -0.7816916 0.43346873 0.44840056
    outer loop
      vertex -26.0825 -14.4953 31.051514
      vertex -27.950914 -15.186498 28.46251
      vertex -26.67043 -15.643668 31.136711
    endloop
  endfacet
  facet normal -0.54817146 0.7403698 0.3890509
    outer loop
      vertex -27.950914 -15.186498 28.46251
      vertex -26.873531 -15.828541 31.202356
      vertex -26.67043 -15.643668 31.136711
    endloop
  endfacet
  facet normal -0.54817146 0.7403698 0.3890509
    outer loop
      vertex -26.873531 -15.828541 31.202356
      vertex -27.950914 -15.186498 28.46251
      vertex -28.154016 -15.37137 28.528154
    endloop
  endfacet
  facet normal 0.87427944 0.32153767 -0.3636605
    outer loop
      vertex -31.608908 -15.309857 33.55846
      vertex -33.188316 -13.644373 31.233961
      vertex -31.907833 -14.101544 33.908165
    endloop
  endfacet
  facet normal 0.87427956 0.3215354 -0.3636622
    outer loop
      vertex -33.188316 -13.644373 31.233961
      vertex -31.608908 -15.309857 33.55846
      vertex -32.889393 -14.852687 30.88426
    endloop
  endfacet
  facet normal 0.89620507 -0.06057906 -0.43948457
    outer loop
      vertex -31.751423 -12.8261175 34.05131
      vertex -33.188316 -13.644373 31.233961
      vertex -33.031906 -12.368947 31.37711
    endloop
  endfacet
  facet normal 0.89620507 -0.060579695 -0.43948442
    outer loop
      vertex -33.188316 -13.644373 31.233961
      vertex -31.751423 -12.8261175 34.05131
      vertex -31.907833 -14.101544 33.908165
    endloop
  endfacet
  facet normal -0.87427986 -0.32153538 0.36366153
    outer loop
      vertex -19.534958 -12.277863 28.295448
      vertex -21.334246 -11.296513 24.837446
      vertex -21.24227 -11.668302 24.729845
    endloop
  endfacet
  facet normal -0.8742802 -0.3215338 0.36366215
    outer loop
      vertex -21.334246 -11.296513 24.837446
      vertex -19.534958 -12.277863 28.295448
      vertex -19.626934 -11.906074 28.403048
    endloop
  endfacet
  facet normal 0.87427974 0.3215361 -0.36366126
    outer loop
      vertex -21.283516 -12.920934 29.02277
      vertex -23.082804 -11.939584 25.564768
      vertex -21.375492 -12.549146 29.130371
    endloop
  endfacet
  facet normal 0.8742802 0.3215338 -0.36366215
    outer loop
      vertex -23.082804 -11.939584 25.564768
      vertex -21.283516 -12.920934 29.02277
      vertex -22.990828 -12.311373 25.457169
    endloop
  endfacet
  facet normal -0.12097453 -0.986462 -0.110715486
    outer loop
      vertex -22.21983 -10.805431 25.345442
      vertex -20.155985 -11.439093 28.736206
      vertex -20.512518 -11.414992 28.911045
    endloop
  endfacet
  facet normal -0.12097256 -0.9864621 -0.11071671
    outer loop
      vertex -20.155985 -11.439093 28.736206
      vertex -22.21983 -10.805431 25.345442
      vertex -21.863298 -10.829531 25.170605
    endloop
  endfacet
  facet normal 0.4547259 0.88819045 -0.06589447
    outer loop
      vertex -20.754463 -13.387916 28.689611
      vertex -22.772753 -12.60591 25.302395
      vertex -21.06544 -13.215471 28.867996
    endloop
  endfacet
  facet normal 0.4547259 0.88819045 -0.06589447
    outer loop
      vertex -22.772753 -12.60591 25.302395
      vertex -20.754463 -13.387916 28.689611
      vertex -22.461777 -12.778355 25.12401
    endloop
  endfacet
  facet normal 0.231199 -0.93455434 -0.2704722
    outer loop
      vertex -22.21983 -10.805431 25.345442
      vertex -20.860329 -11.542908 29.05572
      vertex -22.56764 -10.933347 25.490116
    endloop
  endfacet
  facet normal 0.231199 -0.93455434 -0.2704722
    outer loop
      vertex -20.860329 -11.542908 29.05572
      vertex -22.21983 -10.805431 25.345442
      vertex -20.512518 -11.414992 28.911045
    endloop
  endfacet
  facet normal -0.71925336 -0.6546986 0.23247436
    outer loop
      vertex -19.626934 -11.906074 28.403048
      vertex -21.552322 -11.001975 24.99222
      vertex -21.334246 -11.296513 24.837446
    endloop
  endfacet
  facet normal -0.7192551 -0.6546961 0.23247601
    outer loop
      vertex -21.552322 -11.001975 24.99222
      vertex -19.626934 -11.906074 28.403048
      vertex -19.845009 -11.611536 28.557821
    endloop
  endfacet
  facet normal 0.5481723 -0.7403692 -0.38905087
    outer loop
      vertex -22.56764 -10.933347 25.490116
      vertex -21.146465 -11.803363 29.148203
      vertex -22.853777 -11.193802 25.5826
    endloop
  endfacet
  facet normal 0.5481723 -0.7403692 -0.38905087
    outer loop
      vertex -21.146465 -11.803363 29.148203
      vertex -22.56764 -10.933347 25.490116
      vertex -20.860329 -11.542908 29.05572
    endloop
  endfacet
  facet normal -0.4547243 -0.88819134 0.06589333
    outer loop
      vertex -21.863298 -10.829531 25.170605
      vertex -19.845009 -11.611536 28.557821
      vertex -20.155985 -11.439093 28.736206
    endloop
  endfacet
  facet normal -0.4547259 -0.88819045 0.06589447
    outer loop
      vertex -19.845009 -11.611536 28.557821
      vertex -21.863298 -10.829531 25.170605
      vertex -21.552322 -11.001975 24.99222
    endloop
  endfacet
  facet normal 0.12097194 0.9864622 0.11071675
    outer loop
      vertex -20.39793 -13.412015 28.514774
      vertex -22.461777 -12.778355 25.12401
      vertex -20.754463 -13.387916 28.689611
    endloop
  endfacet
  facet normal 0.120971896 0.9864622 0.110716775
    outer loop
      vertex -22.461777 -12.778355 25.12401
      vertex -20.39793 -13.412015 28.514774
      vertex -22.105242 -12.802454 24.949171
    endloop
  endfacet
  facet normal -0.5481709 0.74037033 0.38905063
    outer loop
      vertex -21.471296 -12.4140835 24.712013
      vertex -20.050121 -13.2841 28.3701
      vertex -19.763985 -13.023645 28.277617
    endloop
  endfacet
  facet normal -0.54817086 0.7403704 0.3890506
    outer loop
      vertex -20.050121 -13.2841 28.3701
      vertex -21.471296 -12.4140835 24.712013
      vertex -21.757433 -12.674539 24.804499
    endloop
  endfacet
  facet normal 0.7816901 -0.43347204 -0.44839996
    outer loop
      vertex -21.146465 -11.803363 29.148203
      vertex -23.03468 -11.547145 25.608814
      vertex -22.853777 -11.193802 25.5826
    endloop
  endfacet
  facet normal 0.7816917 -0.43346864 -0.44840053
    outer loop
      vertex -23.03468 -11.547145 25.608814
      vertex -21.146465 -11.803363 29.148203
      vertex -21.327366 -12.156706 29.174417
    endloop
  endfacet
  facet normal 0.8962054 -0.060573924 -0.43948445
    outer loop
      vertex -21.327366 -12.156706 29.174417
      vertex -23.082804 -11.939584 25.564768
      vertex -23.03468 -11.547145 25.608814
    endloop
  endfacet
  facet normal 0.8962051 -0.06057808 -0.43948454
    outer loop
      vertex -23.082804 -11.939584 25.564768
      vertex -21.327366 -12.156706 29.174417
      vertex -21.375492 -12.549146 29.130371
    endloop
  endfacet
  facet normal -0.7816917 0.43346864 0.44840053
    outer loop
      vertex -21.471296 -12.4140835 24.712013
      vertex -19.583082 -12.670301 28.251402
      vertex -21.290396 -12.06074 24.685799
    endloop
  endfacet
  facet normal -0.7816906 0.43347108 0.4484001
    outer loop
      vertex -19.583082 -12.670301 28.251402
      vertex -21.471296 -12.4140835 24.712013
      vertex -19.763985 -13.023645 28.277617
    endloop
  endfacet
  facet normal 0.71925336 0.6546986 -0.23247436
    outer loop
      vertex -21.06544 -13.215471 28.867996
      vertex -22.990828 -12.311373 25.457169
      vertex -21.283516 -12.920934 29.02277
    endloop
  endfacet
  facet normal 0.7192551 0.6546961 -0.23247601
    outer loop
      vertex -22.990828 -12.311373 25.457169
      vertex -21.06544 -13.215471 28.867996
      vertex -22.772753 -12.60591 25.302395
    endloop
  endfacet
  facet normal -0.23119992 0.934554 0.27047274
    outer loop
      vertex -21.757433 -12.674539 24.804499
      vertex -20.39793 -13.412015 28.514774
      vertex -20.050121 -13.2841 28.3701
    endloop
  endfacet
  facet normal -0.23120111 0.93455356 0.2704731
    outer loop
      vertex -20.39793 -13.412015 28.514774
      vertex -21.757433 -12.674539 24.804499
      vertex -22.105242 -12.802454 24.949171
    endloop
  endfacet
  facet normal -0.8962051 0.060578227 0.43948454
    outer loop
      vertex -21.290396 -12.06074 24.685799
      vertex -19.534958 -12.277863 28.295448
      vertex -21.24227 -11.668302 24.729845
    endloop
  endfacet
  facet normal -0.8962054 0.060573924 0.43948445
    outer loop
      vertex -19.534958 -12.277863 28.295448
      vertex -21.290396 -12.06074 24.685799
      vertex -19.583082 -12.670301 28.251402
    endloop
  endfacet
  facet normal -0.7192551 -0.6546961 0.23247601
    outer loop
      vertex -36.550407 -14.400484 36.080055
      vertex -38.475796 -13.496386 32.669228
      vertex -38.25772 -13.790923 32.514454
    endloop
  endfacet
  facet normal -0.7192551 -0.6546961 0.23247601
    outer loop
      vertex -38.475796 -13.496386 32.669228
      vertex -36.550407 -14.400484 36.080055
      vertex -36.768482 -14.105947 36.23483
    endloop
  endfacet
  facet normal -0.874278 -0.3215432 0.36365905
    outer loop
      vertex -36.45843 -14.772273 35.972454
      vertex -38.25772 -13.790923 32.514454
      vertex -38.16574 -14.162712 32.406853
    endloop
  endfacet
  facet normal -0.8742796 -0.32153547 0.36366206
    outer loop
      vertex -38.25772 -13.790923 32.514454
      vertex -36.45843 -14.772273 35.972454
      vertex -36.550407 -14.400484 36.080055
    endloop
  endfacet
  facet normal 0.23119722 -0.934555 -0.27047145
    outer loop
      vertex -39.143303 -13.299843 33.02245
      vertex -37.783802 -14.037318 36.732727
      vertex -39.491116 -13.427757 33.16712
    endloop
  endfacet
  facet normal 0.23119687 -0.9345551 -0.27047133
    outer loop
      vertex -37.783802 -14.037318 36.732727
      vertex -39.143303 -13.299843 33.02245
      vertex -37.435993 -13.909404 36.58805
    endloop
  endfacet
  facet normal 0.78169227 -0.43346775 -0.4484004
    outer loop
      vertex -38.06994 -14.297773 36.82521
      vertex -39.958153 -14.041556 33.28582
      vertex -39.777252 -13.688212 33.259605
    endloop
  endfacet
  facet normal 0.78169227 -0.43346775 -0.4484004
    outer loop
      vertex -39.958153 -14.041556 33.28582
      vertex -38.06994 -14.297773 36.82521
      vertex -38.25084 -14.651117 36.851425
    endloop
  endfacet
  facet normal 0.7192543 0.65469724 -0.23247527
    outer loop
      vertex -37.988914 -15.709882 36.545002
      vertex -39.914303 -14.805783 33.134174
      vertex -38.20699 -15.415345 36.699776
    endloop
  endfacet
  facet normal 0.71925163 0.6547011 -0.23247272
    outer loop
      vertex -39.914303 -14.805783 33.134174
      vertex -37.988914 -15.709882 36.545002
      vertex -39.696224 -15.100321 32.9794
    endloop
  endfacet
  facet normal 0.8742796 0.32153547 -0.36366206
    outer loop
      vertex -38.20699 -15.415345 36.699776
      vertex -40.00628 -14.433995 33.241776
      vertex -38.298965 -15.043556 36.807377
    endloop
  endfacet
  facet normal 0.87427944 0.32153618 -0.3636618
    outer loop
      vertex -40.00628 -14.433995 33.241776
      vertex -38.20699 -15.415345 36.699776
      vertex -39.914303 -14.805783 33.134174
    endloop
  endfacet
  facet normal 0.54817224 -0.7403692 -0.38905093
    outer loop
      vertex -39.491116 -13.427757 33.16712
      vertex -38.06994 -14.297773 36.82521
      vertex -39.777252 -13.688212 33.259605
    endloop
  endfacet
  facet normal 0.54817224 -0.7403692 -0.38905093
    outer loop
      vertex -38.06994 -14.297773 36.82521
      vertex -39.491116 -13.427757 33.16712
      vertex -37.783802 -14.037318 36.732727
    endloop
  endfacet
  facet normal -0.45472294 -0.8881921 0.065892294
    outer loop
      vertex -38.78677 -13.323942 32.84761
      vertex -36.768482 -14.105947 36.23483
      vertex -37.07946 -13.933503 36.41321
    endloop
  endfacet
  facet normal -0.45472616 -0.88819027 0.06589464
    outer loop
      vertex -36.768482 -14.105947 36.23483
      vertex -38.78677 -13.323942 32.84761
      vertex -38.475796 -13.496386 32.669228
    endloop
  endfacet
  facet normal -0.89620495 0.06058034 0.4394846
    outer loop
      vertex -38.213867 -14.555151 32.36281
      vertex -36.45843 -14.772273 35.972454
      vertex -38.16574 -14.162712 32.406853
    endloop
  endfacet
  facet normal -0.89620495 0.06058034 0.4394846
    outer loop
      vertex -36.45843 -14.772273 35.972454
      vertex -38.213867 -14.555151 32.36281
      vertex -36.506557 -15.164712 35.92841
    endloop
  endfacet
  facet normal 0.89620477 -0.060580272 -0.43948498
    outer loop
      vertex -38.25084 -14.651117 36.851425
      vertex -40.00628 -14.433995 33.241776
      vertex -39.958153 -14.041556 33.28582
    endloop
  endfacet
  facet normal 0.8962051 -0.06057605 -0.4394849
    outer loop
      vertex -40.00628 -14.433995 33.241776
      vertex -38.25084 -14.651117 36.851425
      vertex -38.298965 -15.043556 36.807377
    endloop
  endfacet
  facet normal 0.12097241 0.9864621 0.11071652
    outer loop
      vertex -37.321404 -15.906425 36.19178
      vertex -39.38525 -15.272765 32.801018
      vertex -37.677937 -15.882326 36.36662
    endloop
  endfacet
  facet normal 0.12097241 0.9864621 0.11071652
    outer loop
      vertex -39.38525 -15.272765 32.801018
      vertex -37.321404 -15.906425 36.19178
      vertex -39.028717 -15.2968645 32.62618
    endloop
  endfacet
  facet normal 0.4547246 0.8881912 -0.06589325
    outer loop
      vertex -37.677937 -15.882326 36.36662
      vertex -39.696224 -15.100321 32.9794
      vertex -37.988914 -15.709882 36.545002
    endloop
  endfacet
  facet normal 0.45472783 0.8881894 -0.065895595
    outer loop
      vertex -39.696224 -15.100321 32.9794
      vertex -37.677937 -15.882326 36.36662
      vertex -39.38525 -15.272765 32.801018
    endloop
  endfacet
  facet normal -0.12097246 -0.9864621 -0.11071662
    outer loop
      vertex -39.143303 -13.299843 33.02245
      vertex -37.07946 -13.933503 36.41321
      vertex -37.435993 -13.909404 36.58805
    endloop
  endfacet
  facet normal -0.12097246 -0.9864621 -0.11071662
    outer loop
      vertex -37.07946 -13.933503 36.41321
      vertex -39.143303 -13.299843 33.02245
      vertex -38.78677 -13.323942 32.84761
    endloop
  endfacet
  facet normal -0.78169435 0.433464 0.4484004
    outer loop
      vertex -38.394768 -14.908495 32.38902
      vertex -36.506557 -15.164712 35.92841
      vertex -38.213867 -14.555151 32.36281
    endloop
  endfacet
  facet normal -0.78169256 0.43346786 0.44839975
    outer loop
      vertex -36.506557 -15.164712 35.92841
      vertex -38.394768 -14.908495 32.38902
      vertex -36.687458 -15.518056 35.954624
    endloop
  endfacet
  facet normal -0.2312011 0.93455356 0.2704731
    outer loop
      vertex -38.680904 -15.168949 32.481506
      vertex -37.321404 -15.906425 36.19178
      vertex -36.973595 -15.77851 36.047108
    endloop
  endfacet
  facet normal -0.23119907 0.9345542 0.2704725
    outer loop
      vertex -37.321404 -15.906425 36.19178
      vertex -38.680904 -15.168949 32.481506
      vertex -39.028717 -15.2968645 32.62618
    endloop
  endfacet
  facet normal -0.54817116 0.74037045 0.38905007
    outer loop
      vertex -38.394768 -14.908495 32.38902
      vertex -36.973595 -15.77851 36.047108
      vertex -36.687458 -15.518056 35.954624
    endloop
  endfacet
  facet normal -0.54816836 0.74037284 0.38904953
    outer loop
      vertex -36.973595 -15.77851 36.047108
      vertex -38.394768 -14.908495 32.38902
      vertex -38.680904 -15.168949 32.481506
    endloop
  endfacet
  facet normal -0.9025857 -0.13303556 0.40943936
    outer loop
      vertex -19.969748 -12.344545 24.004917
      vertex -20.28146 -10.555227 23.899153
      vertex -20.18316 -12.26835 23.559217
    endloop
  endfacet
  facet normal -0.9025849 -0.13303532 0.40944114
    outer loop
      vertex -20.28146 -10.555227 23.899153
      vertex -19.969748 -12.344545 24.004917
      vertex -20.068045 -10.631423 24.344854
    endloop
  endfacet
  facet normal -0.42682853 0.15239014 -0.8914004
    outer loop
      vertex -38.213867 -14.555151 32.36281
      vertex -34.213318 -13.58015 30.61391
      vertex -33.85461 -15.030126 30.19427
    endloop
  endfacet
  facet normal -0.42682785 0.1523896 -0.8914008
    outer loop
      vertex -39.16777 -16.779425 32.43931
      vertex -33.85461 -15.030126 30.19427
      vertex -33.209637 -15.901235 29.736517
    endloop
  endfacet
  facet normal -0.4268282 0.15238789 -0.89140093
    outer loop
      vertex -34.213318 -13.58015 30.61391
      vertex -38.213867 -14.555151 32.36281
      vertex -38.16574 -14.162712 32.406853
    endloop
  endfacet
  facet normal -0.42682725 0.15239827 -0.8913996
    outer loop
      vertex -33.85461 -15.030126 30.19427
      vertex -38.394768 -14.908495 32.38902
      vertex -38.213867 -14.555151 32.36281
    endloop
  endfacet
  facet normal -0.42682797 0.1523902 -0.89140064
    outer loop
      vertex -33.85461 -15.030126 30.19427
      vertex -39.16777 -16.779425 32.43931
      vertex -38.394768 -14.908495 32.38902
    endloop
  endfacet
  facet normal -0.42684045 0.15239555 -0.8913937
    outer loop
      vertex -38.394768 -14.908495 32.38902
      vertex -39.16777 -16.779425 32.43931
      vertex -38.680904 -15.168949 32.481506
    endloop
  endfacet
  facet normal -0.42682314 0.15239055 -0.8914029
    outer loop
      vertex -38.680904 -15.168949 32.481506
      vertex -39.16777 -16.779425 32.43931
      vertex -39.028717 -15.2968645 32.62618
    endloop
  endfacet
  facet normal -0.4268298 0.15239076 -0.8913997
    outer loop
      vertex -39.16777 -16.779425 32.43931
      vertex -39.38525 -15.272765 32.801018
      vertex -39.028717 -15.2968645 32.62618
    endloop
  endfacet
  facet normal -0.42683077 0.15239052 -0.89139926
    outer loop
      vertex -39.834106 -16.734385 32.76607
      vertex -39.38525 -15.272765 32.801018
      vertex -39.16777 -16.779425 32.43931
    endloop
  endfacet
  facet normal -0.4268281 0.15238973 -0.8914007
    outer loop
      vertex -40.611546 -16.303272 33.212032
      vertex -39.38525 -15.272765 32.801018
      vertex -39.834106 -16.734385 32.76607
    endloop
  endfacet
  facet normal -0.4268272 0.15238841 -0.89140135
    outer loop
      vertex -39.38525 -15.272765 32.801018
      vertex -40.611546 -16.303272 33.212032
      vertex -39.696224 -15.100321 32.9794
    endloop
  endfacet
  facet normal -0.42682868 0.15238973 -0.8914004
    outer loop
      vertex -41.15674 -15.566929 33.59897
      vertex -39.696224 -15.100321 32.9794
      vertex -40.611546 -16.303272 33.212032
    endloop
  endfacet
  facet normal -0.42682797 0.15238616 -0.89140135
    outer loop
      vertex -39.696224 -15.100321 32.9794
      vertex -41.15674 -15.566929 33.59897
      vertex -39.914303 -14.805783 33.134174
    endloop
  endfacet
  facet normal -0.4268245 0.15237874 -0.8914043
    outer loop
      vertex -41.1805 -15.470873 33.626766
      vertex -39.914303 -14.805783 33.134174
      vertex -41.15674 -15.566929 33.59897
    endloop
  endfacet
  facet normal -0.42680982 0.1524252 -0.8914034
    outer loop
      vertex -41.266365 -13.65636 33.978085
      vertex -40.00628 -14.433995 33.241776
      vertex -41.2788 -13.757751 33.9667
    endloop
  endfacet
  facet normal -0.4268296 0.1523919 -0.89139956
    outer loop
      vertex -39.914303 -14.805783 33.134174
      vertex -41.1805 -15.470873 33.626766
      vertex -40.00628 -14.433995 33.241776
    endloop
  endfacet
  facet normal -0.42682764 0.15238915 -0.891401
    outer loop
      vertex -40.00628 -14.433995 33.241776
      vertex -41.1805 -15.470873 33.626766
      vertex -41.2788 -13.757751 33.9667
    endloop
  endfacet
  facet normal -0.42682782 0.15239008 -0.89140075
    outer loop
      vertex -40.00628 -14.433995 33.241776
      vertex -40.81411 -12.773001 33.912544
      vertex -40.09877 -12.121861 33.681335
    endloop
  endfacet
  facet normal -0.4268304 0.15238842 -0.8913998
    outer loop
      vertex -40.00628 -14.433995 33.241776
      vertex -41.266365 -13.65636 33.978085
      vertex -40.81411 -12.773001 33.912544
    endloop
  endfacet
  facet normal -0.4268282 0.15238787 -0.89140093
    outer loop
      vertex -38.25772 -13.790923 32.514454
      vertex -34.213318 -13.58015 30.61391
      vertex -38.16574 -14.162712 32.406853
    endloop
  endfacet
  facet normal -0.42682815 0.15239103 -0.8914004
    outer loop
      vertex -34.213318 -13.58015 30.61391
      vertex -38.25772 -13.790923 32.514454
      vertex -34.025627 -12.049639 30.78569
    endloop
  endfacet
  facet normal -0.42682815 0.15239106 -0.8914004
    outer loop
      vertex -38.475796 -13.496386 32.669228
      vertex -34.025627 -12.049639 30.78569
      vertex -38.25772 -13.790923 32.514454
    endloop
  endfacet
  facet normal -0.42682785 0.1523897 -0.89140075
    outer loop
      vertex -39.448734 -11.882796 33.41095
      vertex -34.025627 -12.049639 30.78569
      vertex -38.475796 -13.496386 32.669228
    endloop
  endfacet
  facet normal -0.42682627 0.15239091 -0.89140135
    outer loop
      vertex -39.448734 -11.882796 33.41095
      vertex -38.475796 -13.496386 32.669228
      vertex -38.78677 -13.323942 32.84761
    endloop
  endfacet
  facet normal -0.42683005 0.15238862 -0.8913999
    outer loop
      vertex -39.448734 -11.882796 33.41095
      vertex -38.78677 -13.323942 32.84761
      vertex -39.143303 -13.299843 33.02245
    endloop
  endfacet
  facet normal -0.42682785 0.15238982 -0.89140075
    outer loop
      vertex -34.025627 -12.049639 30.78569
      vertex -39.448734 -11.882796 33.41095
      vertex -33.4906 -11.004606 30.708158
    endloop
  endfacet
  facet normal -0.4268235 0.15239339 -0.89140224
    outer loop
      vertex -40.09877 -12.121861 33.681335
      vertex -39.143303 -13.299843 33.02245
      vertex -39.491116 -13.427757 33.16712
    endloop
  endfacet
  facet normal -0.42682728 0.15239106 -0.8914008
    outer loop
      vertex -40.09877 -12.121861 33.681335
      vertex -39.491116 -13.427757 33.16712
      vertex -39.777252 -13.688212 33.259605
    endloop
  endfacet
  facet normal -0.42683014 0.15239014 -0.8913996
    outer loop
      vertex -40.09877 -12.121861 33.681335
      vertex -39.777252 -13.688212 33.259605
      vertex -39.958153 -14.041556 33.28582
    endloop
  endfacet
  facet normal -0.42682743 0.15238948 -0.891401
    outer loop
      vertex -39.143303 -13.299843 33.02245
      vertex -40.09877 -12.121861 33.681335
      vertex -39.448734 -11.882796 33.41095
    endloop
  endfacet
  facet normal -0.42683926 0.15238863 -0.8913955
    outer loop
      vertex -40.09877 -12.121861 33.681335
      vertex -39.958153 -14.041556 33.28582
      vertex -40.00628 -14.433995 33.241776
    endloop
  endfacet
  facet normal -0.42682722 0.15239207 -0.8914007
    outer loop
      vertex -19.969748 -12.344545 24.004917
      vertex -21.290396 -12.06074 24.685799
      vertex -21.24227 -11.668302 24.729845
    endloop
  endfacet
  facet normal -0.4268281 0.1523894 -0.8914007
    outer loop
      vertex -20.434435 -13.329295 24.059074
      vertex -21.471296 -12.4140835 24.712013
      vertex -21.290396 -12.06074 24.685799
    endloop
  endfacet
  facet normal -0.42682967 0.15238734 -0.89140034
    outer loop
      vertex -20.434435 -13.329295 24.059074
      vertex -21.757433 -12.674539 24.804499
      vertex -21.471296 -12.4140835 24.712013
    endloop
  endfacet
  facet normal -0.42682758 0.15239008 -0.8914009
    outer loop
      vertex -22.105242 -12.802454 24.949171
      vertex -21.149776 -13.980434 24.290285
      vertex -21.799812 -14.2195 24.56067
    endloop
  endfacet
  facet normal -0.42682704 0.15239061 -0.891401
    outer loop
      vertex -21.149776 -13.980434 24.290285
      vertex -22.105242 -12.802454 24.949171
      vertex -21.757433 -12.674539 24.804499
    endloop
  endfacet
  facet normal -0.42682806 0.15238993 -0.89140064
    outer loop
      vertex -21.799812 -14.2195 24.56067
      vertex -22.461777 -12.778355 25.12401
      vertex -22.105242 -12.802454 24.949171
    endloop
  endfacet
  facet normal -0.42682892 0.1523894 -0.89140034
    outer loop
      vertex -21.799812 -14.2195 24.56067
      vertex -22.772753 -12.60591 25.302395
      vertex -22.461777 -12.778355 25.12401
    endloop
  endfacet
  facet normal -0.42682782 0.15239026 -0.8914007
    outer loop
      vertex -27.22292 -14.052657 27.18593
      vertex -22.772753 -12.60591 25.302395
      vertex -21.799812 -14.2195 24.56067
    endloop
  endfacet
  facet normal -0.42682803 0.15238775 -0.89140105
    outer loop
      vertex -22.990828 -12.311373 25.457169
      vertex -27.035229 -12.522146 27.35771
      vertex -23.082804 -11.939584 25.564768
    endloop
  endfacet
  facet normal -0.426828 0.1523912 -0.89140046
    outer loop
      vertex -22.772753 -12.60591 25.302395
      vertex -27.22292 -14.052657 27.18593
      vertex -22.990828 -12.311373 25.457169
    endloop
  endfacet
  facet normal -0.42682797 0.15239102 -0.8914005
    outer loop
      vertex -22.990828 -12.311373 25.457169
      vertex -27.22292 -14.052657 27.18593
      vertex -27.035229 -12.522146 27.35771
    endloop
  endfacet
  facet normal -0.42682794 0.15238893 -0.8914009
    outer loop
      vertex -27.22292 -14.052657 27.18593
      vertex -21.799812 -14.2195 24.56067
      vertex -27.757944 -15.097691 27.263462
    endloop
  endfacet
  facet normal -0.42682844 0.15238708 -0.89140093
    outer loop
      vertex -21.290396 -12.06074 24.685799
      vertex -19.969748 -12.344545 24.004917
      vertex -19.982182 -12.445936 23.993538
    endloop
  endfacet
  facet normal -0.4268278 0.15239091 -0.8914006
    outer loop
      vertex -19.969748 -12.344545 24.004917
      vertex -21.24227 -11.668302 24.729845
      vertex -20.068045 -10.631423 24.344854
    endloop
  endfacet
  facet normal -0.4268276 0.15238982 -0.8914009
    outer loop
      vertex -21.290396 -12.06074 24.685799
      vertex -19.982182 -12.445936 23.993538
      vertex -20.434435 -13.329295 24.059074
    endloop
  endfacet
  facet normal -0.42682853 0.15239193 -0.8914001
    outer loop
      vertex -21.334246 -11.296513 24.837446
      vertex -20.068045 -10.631423 24.344854
      vertex -21.24227 -11.668302 24.729845
    endloop
  endfacet
  facet normal -0.4268286 0.15238968 -0.89140046
    outer loop
      vertex -21.757433 -12.674539 24.804499
      vertex -20.434435 -13.329295 24.059074
      vertex -21.149776 -13.980434 24.290285
    endloop
  endfacet
  facet normal -0.42682654 0.15238678 -0.8914019
    outer loop
      vertex -20.068045 -10.631423 24.344854
      vertex -21.334246 -11.296513 24.837446
      vertex -20.091808 -10.535367 24.372654
    endloop
  endfacet
  facet normal -0.42682758 0.15238903 -0.89140105
    outer loop
      vertex -21.552322 -11.001975 24.99222
      vertex -20.091808 -10.535367 24.372654
      vertex -21.334246 -11.296513 24.837446
    endloop
  endfacet
  facet normal -0.42682773 0.15238969 -0.8914009
    outer loop
      vertex -20.091808 -10.535367 24.372654
      vertex -21.552322 -11.001975 24.99222
      vertex -20.637 -9.799025 24.759588
    endloop
  endfacet
  facet normal -0.42682844 0.15239033 -0.8914004
    outer loop
      vertex -21.863298 -10.829531 25.170605
      vertex -20.637 -9.799025 24.759588
      vertex -21.552322 -11.001975 24.99222
    endloop
  endfacet
  facet normal -0.42682856 0.15239052 -0.8914003
    outer loop
      vertex -20.637 -9.799025 24.759588
      vertex -21.863298 -10.829531 25.170605
      vertex -21.41444 -9.367912 25.205551
    endloop
  endfacet
  facet normal -0.42682758 0.15239023 -0.8914008
    outer loop
      vertex -21.863298 -10.829531 25.170605
      vertex -22.080778 -9.322871 25.532312
      vertex -21.41444 -9.367912 25.205551
    endloop
  endfacet
  facet normal -0.42682785 0.15239017 -0.8914007
    outer loop
      vertex -22.21983 -10.805431 25.345442
      vertex -22.080778 -9.322871 25.532312
      vertex -21.863298 -10.829531 25.170605
    endloop
  endfacet
  facet normal -0.42682907 0.15239021 -0.8914001
    outer loop
      vertex -22.56764 -10.933347 25.490116
      vertex -22.080778 -9.322871 25.532312
      vertex -22.21983 -10.805431 25.345442
    endloop
  endfacet
  facet normal -0.426826 0.15238932 -0.89140177
    outer loop
      vertex -22.853777 -11.193802 25.5826
      vertex -22.080778 -9.322871 25.532312
      vertex -22.56764 -10.933347 25.490116
    endloop
  endfacet
  facet normal -0.42682782 0.1523916 -0.89140046
    outer loop
      vertex -27.393938 -11.07217 27.777351
      vertex -22.853777 -11.193802 25.5826
      vertex -23.03468 -11.547145 25.608814
    endloop
  endfacet
  facet normal -0.42682818 0.1523901 -0.8914006
    outer loop
      vertex -27.035229 -12.522146 27.35771
      vertex -23.03468 -11.547145 25.608814
      vertex -23.082804 -11.939584 25.564768
    endloop
  endfacet
  facet normal -0.42682812 0.15238975 -0.89140064
    outer loop
      vertex -27.393938 -11.07217 27.777351
      vertex -23.03468 -11.547145 25.608814
      vertex -27.035229 -12.522146 27.35771
    endloop
  endfacet
  facet normal -0.42682797 0.15239015 -0.89140064
    outer loop
      vertex -22.853777 -11.193802 25.5826
      vertex -27.393938 -11.07217 27.777351
      vertex -22.080778 -9.322871 25.532312
    endloop
  endfacet
  facet normal -0.426828 0.15239032 -0.89140064
    outer loop
      vertex -22.080778 -9.322871 25.532312
      vertex -27.393938 -11.07217 27.777351
      vertex -28.03891 -10.201061 28.235104
    endloop
  endfacet
  facet normal 0.90258497 0.13303684 -0.40944055
    outer loop
      vertex -41.1805 -15.470873 33.626766
      vertex -41.492214 -13.681556 33.521004
      vertex -41.2788 -13.757751 33.9667
    endloop
  endfacet
  facet normal 0.9025833 0.13303632 -0.40944436
    outer loop
      vertex -41.492214 -13.681556 33.521004
      vertex -41.1805 -15.470873 33.626766
      vertex -41.393917 -15.394678 33.181065
    endloop
  endfacet
endsolid OpenSCAD_Model
