solid OpenSCAD_Model
  facet normal -0.4065743 0.71181965 -0.57272166
    outer loop
      vertex -28.150295 28.739939 53.654007
      vertex -43.752747 24.957825 60.02948
      vertex -27.98163 28.837957 53.656094
    endloop
  endfacet
  facet normal -0.4065743 0.71181965 -0.57272166
    outer loop
      vertex -41.7709 26.572279 60.62913
      vertex -41.930912 26.570677 60.74073
      vertex -43.160038 26.693047 61.765377
    endloop
  endfacet
  facet normal -0.4065743 0.71181965 -0.57272166
    outer loop
      vertex -42.489754 26.154531 60.620235
      vertex -43.160038 26.693047 61.765377
      vertex -42.411236 26.291546 60.734787
    endloop
  endfacet
  facet normal -0.4065743 0.71181965 -0.57272166
    outer loop
      vertex -37.398808 27.639658 58.852005
      vertex -41.595497 26.425577 60.32228
      vertex -40.930595 27.059359 60.637978
    endloop
  endfacet
  facet normal -0.4065743 0.71181965 -0.57272166
    outer loop
      vertex -37.0747 27.368587 58.285015
      vertex -43.752747 24.957825 60.02948
      vertex -37.398808 27.639658 58.852005
    endloop
  endfacet
  facet normal -0.4065743 0.71181965 -0.57272166
    outer loop
      vertex -37.398808 27.639658 58.852005
      vertex -41.606808 26.299606 60.173744
      vertex -41.595497 26.425577 60.32228
    endloop
  endfacet
  facet normal -0.4065743 0.71181965 -0.57272166
    outer loop
      vertex -37.398808 27.639658 58.852005
      vertex -41.685326 26.16259 60.059193
      vertex -41.606808 26.299606 60.173744
    endloop
  endfacet
  facet normal -0.4065743 0.71181965 -0.57272166
    outer loop
      vertex -37.398808 27.639658 58.852005
      vertex -41.819103 26.035393 59.996067
      vertex -41.685326 26.16259 60.059193
    endloop
  endfacet
  facet normal -0.4065743 0.71181965 -0.57272166
    outer loop
      vertex -37.398808 27.639658 58.852005
      vertex -41.98777 25.937374 59.99398
      vertex -41.819103 26.035393 59.996067
    endloop
  endfacet
  facet normal 0.23473579 0.6872162 0.6874831
    outer loop
      vertex -40.930595 27.059359 60.637978
      vertex -38.8652 23.443316 63.547405
      vertex -37.398808 27.639658 58.852005
    endloop
  endfacet
  facet normal -0.4065743 0.71181965 -0.57272166
    outer loop
      vertex -42.501064 26.028559 60.4717
      vertex -43.160038 26.693047 61.765377
      vertex -42.489754 26.154531 60.620235
    endloop
  endfacet
  facet normal -0.4065743 0.71181965 -0.57272166
    outer loop
      vertex -26.339888 29.456718 53.259666
      vertex -43.752747 24.957825 60.02948
      vertex -32.65996 28.09396 56.052544
    endloop
  endfacet
  facet normal -0.4065743 0.71181965 -0.57272166
    outer loop
      vertex -32.65996 28.09396 56.052544
      vertex -32.10112 28.510107 56.17304
      vertex -28.56933 29.090405 54.387062
    endloop
  endfacet
  facet normal -0.4065743 0.71181965 -0.57272166
    outer loop
      vertex -27.98163 28.837957 53.656094
      vertex -43.752747 24.957825 60.02948
      vertex -27.803751 28.891872 53.59683
    endloop
  endfacet
  facet normal -0.4065743 0.71181965 -0.57272166
    outer loop
      vertex -43.752747 24.957825 60.02948
      vertex -26.339888 29.456718 53.259666
      vertex -27.803751 28.891872 53.59683
    endloop
  endfacet
  facet normal -0.4065743 0.71181965 -0.57272166
    outer loop
      vertex -41.595497 26.425577 60.32228
      vertex -41.65312 26.521328 60.482193
      vertex -40.930595 27.059359 60.637978
    endloop
  endfacet
  facet normal -0.4065743 0.71181965 -0.57272166
    outer loop
      vertex -28.284073 28.612741 53.590885
      vertex -43.752747 24.957825 60.02948
      vertex -28.150295 28.739939 53.654007
    endloop
  endfacet
  facet normal -0.4065743 0.71181965 -0.57272166
    outer loop
      vertex -28.316278 28.254004 53.167885
      vertex -28.198498 28.203053 53.020943
      vertex -43.752747 24.957825 60.02948
    endloop
  endfacet
  facet normal -0.4065743 0.71181965 -0.57272166
    outer loop
      vertex -28.198498 28.203053 53.020943
      vertex -28.038486 28.204655 52.909344
      vertex -43.752747 24.957825 60.02948
    endloop
  endfacet
  facet normal -0.4065743 0.71181965 -0.57272166
    outer loop
      vertex -28.038486 28.204655 52.909344
      vertex -26.932596 27.721498 51.52377
      vertex -43.752747 24.957825 60.02948
    endloop
  endfacet
  facet normal -0.4065743 0.71181965 -0.57272166
    outer loop
      vertex -28.362593 28.475725 53.476334
      vertex -43.752747 24.957825 60.02948
      vertex -28.284073 28.612741 53.590885
    endloop
  endfacet
  facet normal -0.4065743 0.71181965 -0.57272166
    outer loop
      vertex -28.373901 28.349754 53.327797
      vertex -43.752747 24.957825 60.02948
      vertex -28.362593 28.475725 53.476334
    endloop
  endfacet
  facet normal -0.4065743 0.71181965 -0.57272166
    outer loop
      vertex -28.373901 28.349754 53.327797
      vertex -28.316278 28.254004 53.167885
      vertex -43.752747 24.957825 60.02948
    endloop
  endfacet
  facet normal -0.4065743 0.71181965 -0.57272166
    outer loop
      vertex -42.44344 25.93281 60.311787
      vertex -43.160038 26.693047 61.765377
      vertex -42.501064 26.028559 60.4717
    endloop
  endfacet
  facet normal -0.4065743 0.71181965 -0.57272166
    outer loop
      vertex -42.44344 25.93281 60.311787
      vertex -43.752747 24.957825 60.02948
      vertex -43.160038 26.693047 61.765377
    endloop
  endfacet
  facet normal -0.4065743 0.71181965 -0.57272166
    outer loop
      vertex -42.16565 25.883461 60.05325
      vertex -43.752747 24.957825 60.02948
      vertex -42.325657 25.881857 60.16485
    endloop
  endfacet
  facet normal -0.4065743 0.71181965 -0.57272166
    outer loop
      vertex -43.752747 24.957825 60.02948
      vertex -42.44344 25.93281 60.311787
      vertex -42.325657 25.881857 60.16485
    endloop
  endfacet
  facet normal -0.4065743 0.71181965 -0.57272166
    outer loop
      vertex -41.98777 25.937374 59.99398
      vertex -43.752747 24.957825 60.02948
      vertex -42.16565 25.883461 60.05325
    endloop
  endfacet
  facet normal -0.4065743 0.71181965 -0.57272166
    outer loop
      vertex -43.752747 24.957825 60.02948
      vertex -41.98777 25.937374 59.99398
      vertex -37.398808 27.639658 58.852005
    endloop
  endfacet
  facet normal -0.4065743 0.71181965 -0.57272166
    outer loop
      vertex -27.860607 28.25857 52.85008
      vertex -27.69194 28.356588 52.852165
      vertex -26.932596 27.721498 51.52377
    endloop
  endfacet
  facet normal 0.4065743 -0.71181965 0.57272166
    outer loop
      vertex -41.094643 23.077002 64.674805
      vertex -41.68735 21.341782 62.938908
      vertex -38.8652 23.443316 63.547405
    endloop
  endfacet
  facet normal -0.4065743 0.71181965 -0.57272166
    outer loop
      vertex -43.752747 24.957825 60.02948
      vertex -37.0747 27.368587 58.285015
      vertex -32.65996 28.09396 56.052544
    endloop
  endfacet
  facet normal 0.4065743 -0.71181965 0.57272166
    outer loop
      vertex -26.503933 25.474361 57.29649
      vertex -24.867199 24.105453 54.433197
      vertex -24.27449 25.840675 56.16909
    endloop
  endfacet
  facet normal 0.23473579 0.6872162 0.6874831
    outer loop
      vertex -28.56933 29.090405 54.387062
      vertex -30.360983 25.463518 58.624287
      vertex -26.503933 25.474361 57.29649
    endloop
  endfacet
  facet normal -0.4065743 0.71181965 -0.57272166
    outer loop
      vertex -26.339888 29.456718 53.259666
      vertex -32.65996 28.09396 56.052544
      vertex -28.56933 29.090405 54.387062
    endloop
  endfacet
  facet normal 0.23473579 0.6872162 0.6874831
    outer loop
      vertex -28.56933 29.090405 54.387062
      vertex -32.10112 28.510107 56.17304
      vertex -30.360983 25.463518 58.624287
    endloop
  endfacet
  facet normal -0.4065743 0.71181965 -0.57272166
    outer loop
      vertex -26.932596 27.721498 51.52377
      vertex -27.468336 28.746773 53.17838
      vertex -26.339888 29.456718 53.259666
    endloop
  endfacet
  facet normal -0.4065743 0.71181965 -0.57272166
    outer loop
      vertex -26.932596 27.721498 51.52377
      vertex -27.479645 28.6208 53.02984
      vertex -27.468336 28.746773 53.17838
    endloop
  endfacet
  facet normal -0.4065743 0.71181965 -0.57272166
    outer loop
      vertex -26.932596 27.721498 51.52377
      vertex -27.558165 28.483786 52.915287
      vertex -27.479645 28.6208 53.02984
    endloop
  endfacet
  facet normal -0.4065743 0.71181965 -0.57272166
    outer loop
      vertex -43.160038 26.693047 61.765377
      vertex -41.930912 26.570677 60.74073
      vertex -42.10879 26.516762 60.8
    endloop
  endfacet
  facet normal 0.4065743 -0.71181965 0.57272166
    outer loop
      vertex -38.8652 23.443316 63.547405
      vertex -24.867199 24.105453 54.433197
      vertex -26.503933 25.474361 57.29649
    endloop
  endfacet
  facet normal 0.23473579 0.6872162 0.6874831
    outer loop
      vertex -30.360983 25.463518 58.624287
      vertex -35.65867 24.59307 61.303253
      vertex -38.8652 23.443316 63.547405
    endloop
  endfacet
  facet normal 0.23473579 0.6872162 0.6874831
    outer loop
      vertex -30.360983 25.463518 58.624287
      vertex -38.8652 23.443316 63.547405
      vertex -26.503933 25.474361 57.29649
    endloop
  endfacet
  facet normal 0.4065743 -0.71181965 0.57272166
    outer loop
      vertex -41.68735 21.341782 62.938908
      vertex -24.867199 24.105453 54.433197
      vertex -38.8652 23.443316 63.547405
    endloop
  endfacet
  facet normal 0.23473579 0.6872162 0.6874831
    outer loop
      vertex -35.65867 24.59307 61.303253
      vertex -37.398808 27.639658 58.852005
      vertex -38.8652 23.443316 63.547405
    endloop
  endfacet
  facet normal -0.4065743 0.71181965 -0.57272166
    outer loop
      vertex -26.932596 27.721498 51.52377
      vertex -27.69194 28.356588 52.852165
      vertex -27.558165 28.483786 52.915287
    endloop
  endfacet
  facet normal -0.4065743 0.71181965 -0.57272166
    outer loop
      vertex -27.860607 28.25857 52.85008
      vertex -26.932596 27.721498 51.52377
      vertex -28.038486 28.204655 52.909344
    endloop
  endfacet
  facet normal -0.4065743 0.71181965 -0.57272166
    outer loop
      vertex -42.10879 26.516762 60.8
      vertex -42.27746 26.418745 60.797913
      vertex -43.160038 26.693047 61.765377
    endloop
  endfacet
  facet normal -0.4065743 0.71181965 -0.57272166
    outer loop
      vertex -27.525957 28.842524 53.338287
      vertex -27.64374 28.893475 53.48523
      vertex -26.339888 29.456718 53.259666
    endloop
  endfacet
  facet normal -0.4065743 0.71181965 -0.57272166
    outer loop
      vertex -27.64374 28.893475 53.48523
      vertex -27.803751 28.891872 53.59683
      vertex -26.339888 29.456718 53.259666
    endloop
  endfacet
  facet normal -0.4065743 0.71181965 -0.57272166
    outer loop
      vertex -26.339888 29.456718 53.259666
      vertex -27.468336 28.746773 53.17838
      vertex -27.525957 28.842524 53.338287
    endloop
  endfacet
  facet normal -0.4065743 0.71181965 -0.57272166
    outer loop
      vertex -42.27746 26.418745 60.797913
      vertex -42.411236 26.291546 60.734787
      vertex -43.160038 26.693047 61.765377
    endloop
  endfacet
  facet normal -0.4065743 0.71181965 -0.57272166
    outer loop
      vertex -40.930595 27.059359 60.637978
      vertex -41.65312 26.521328 60.482193
      vertex -41.7709 26.572279 60.62913
    endloop
  endfacet
  facet normal -0.4065743 0.71181965 -0.57272166
    outer loop
      vertex -41.7709 26.572279 60.62913
      vertex -43.160038 26.693047 61.765377
      vertex -40.930595 27.059359 60.637978
    endloop
  endfacet
  facet normal -0.4065743 0.71181965 -0.57272166
    outer loop
      vertex -38.17514 37.566135 71.74046
      vertex -39.28103 38.049294 73.12604
      vertex -38.01513 37.567738 71.62886
    endloop
  endfacet
  facet normal -0.4065743 0.71181965 -0.57272166
    outer loop
      vertex -38.35302 37.512222 71.79973
      vertex -39.28103 38.049294 73.12604
      vertex -38.17514 37.566135 71.74046
    endloop
  endfacet
  facet normal -0.4065743 0.71181965 -0.57272166
    outer loop
      vertex -38.521687 37.414204 71.79764
      vertex -39.28103 38.049294 73.12604
      vertex -38.35302 37.512222 71.79973
    endloop
  endfacet
  facet normal -0.4065743 0.71181965 -0.57272166
    outer loop
      vertex -29.138926 38.402203 66.36479
      vertex -33.553665 37.67683 68.59726
      vertex -24.690321 40.44665 65.74772
    endloop
  endfacet
  facet normal -0.23473579 -0.6872162 -0.6874831
    outer loop
      vertex -34.112507 37.260685 68.47677
      vertex -32.372368 34.214096 70.92802
      vertex -37.644295 36.680386 70.26274
    endloop
  endfacet
  facet normal -0.4065743 0.71181965 -0.57272166
    outer loop
      vertex -34.112507 37.260685 68.47677
      vertex -37.644295 36.680386 70.26274
      vertex -33.553665 37.67683 68.59726
    endloop
  endfacet
  facet normal -0.4065743 0.71181965 -0.57272166
    outer loop
      vertex -24.690321 40.44665 65.74772
      vertex -28.81482 38.131134 65.797806
      vertex -29.138926 38.402203 66.36479
    endloop
  endfacet
  facet normal -0.4065743 0.71181965 -0.57272166
    outer loop
      vertex -24.690321 40.44665 65.74772
      vertex -37.929554 37.15805 71.05892
      vertex -37.851032 37.295063 71.17347
    endloop
  endfacet
  facet normal -0.4065743 0.71181965 -0.57272166
    outer loop
      vertex -39.28103 38.049294 73.12604
      vertex -38.521687 37.414204 71.79764
      vertex -38.65546 37.287006 71.73452
    endloop
  endfacet
  facet normal -0.4065743 0.71181965 -0.57272166
    outer loop
      vertex -38.65546 37.287006 71.73452
      vertex -38.733982 37.14999 71.619965
      vertex -39.28103 38.049294 73.12604
    endloop
  endfacet
  facet normal -0.4065743 0.71181965 -0.57272166
    outer loop
      vertex -38.733982 37.14999 71.619965
      vertex -38.745293 37.024017 71.47143
      vertex -39.28103 38.049294 73.12604
    endloop
  endfacet
  facet normal -0.4065743 0.71181965 -0.57272166
    outer loop
      vertex -38.745293 37.024017 71.47143
      vertex -39.873737 36.31407 71.39014
      vertex -39.28103 38.049294 73.12604
    endloop
  endfacet
  facet normal -0.4065743 0.71181965 -0.57272166
    outer loop
      vertex -38.745293 37.024017 71.47143
      vertex -38.687668 36.92827 71.311516
      vertex -39.873737 36.31407 71.39014
    endloop
  endfacet
  facet normal -0.4065743 0.71181965 -0.57272166
    outer loop
      vertex -38.687668 36.92827 71.311516
      vertex -38.569885 36.877316 71.16457
      vertex -39.873737 36.31407 71.39014
    endloop
  endfacet
  facet normal -0.4065743 0.71181965 -0.57272166
    outer loop
      vertex -38.409874 36.878918 71.05298
      vertex -39.873737 36.31407 71.39014
      vertex -38.569885 36.877316 71.16457
    endloop
  endfacet
  facet normal -0.4065743 0.71181965 -0.57272166
    outer loop
      vertex -33.553665 37.67683 68.59726
      vertex -37.644295 36.680386 70.26274
      vertex -39.873737 36.31407 71.39014
    endloop
  endfacet
  facet normal 0.4065743 -0.71181965 0.57272166
    outer loop
      vertex -37.192158 34.501972 76.10421
      vertex -30.139101 35.63355 72.50366
      vertex -22.60145 36.89933 68.7259
    endloop
  endfacet
  facet normal -0.4065743 0.71181965 -0.57272166
    outer loop
      vertex -24.690321 40.44665 65.74772
      vertex -37.851032 37.295063 71.17347
      vertex -37.839725 37.421036 71.322014
    endloop
  endfacet
  facet normal -0.4065743 0.71181965 -0.57272166
    outer loop
      vertex -24.690321 40.44665 65.74772
      vertex -37.839725 37.421036 71.322014
      vertex -37.897346 37.51679 71.481926
    endloop
  endfacet
  facet normal -0.4065743 0.71181965 -0.57272166
    outer loop
      vertex -24.690321 40.44665 65.74772
      vertex -37.897346 37.51679 71.481926
      vertex -38.01513 37.567738 71.62886
    endloop
  endfacet
  facet normal -0.4065743 0.71181965 -0.57272166
    outer loop
      vertex -24.690321 40.44665 65.74772
      vertex -38.01513 37.567738 71.62886
      vertex -39.28103 38.049294 73.12604
    endloop
  endfacet
  facet normal -0.4065743 0.71181965 -0.57272166
    outer loop
      vertex -39.873737 36.31407 71.39014
      vertex -24.690321 40.44665 65.74772
      vertex -33.553665 37.67683 68.59726
    endloop
  endfacet
  facet normal -0.23473579 -0.6872162 -0.6874831
    outer loop
      vertex -37.644295 36.680386 70.26274
      vertex -32.372368 34.214096 70.92802
      vertex -35.5789 33.064342 73.172165
    endloop
  endfacet
  facet normal 0.4065743 -0.71181965 0.57272166
    outer loop
      vertex -37.215633 34.43325 76.03546
      vertex -35.5789 33.064342 73.172165
      vertex -22.624924 36.83061 68.65715
    endloop
  endfacet
  facet normal 0.4065743 -0.71181965 0.57272166
    outer loop
      vertex -37.200066 34.478825 76.081055
      vertex -30.139101 35.63355 72.50366
      vertex -37.192158 34.501972 76.10421
    endloop
  endfacet
  facet normal 0.4065743 -0.71181965 0.57272166
    outer loop
      vertex -37.808342 32.69803 74.29957
      vertex -35.5789 33.064342 73.172165
      vertex -37.215633 34.43325 76.03546
    endloop
  endfacet
  facet normal -0.4065743 0.71181965 -0.57272166
    outer loop
      vertex -24.690321 40.44665 65.74772
      vertex -38.06333 37.030853 70.9958
      vertex -37.929554 37.15805 71.05892
    endloop
  endfacet
  facet normal -0.4065743 0.71181965 -0.57272166
    outer loop
      vertex -24.690321 40.44665 65.74772
      vertex -38.232 36.932835 70.99371
      vertex -38.06333 37.030853 70.9958
    endloop
  endfacet
  facet normal -0.4065743 0.71181965 -0.57272166
    outer loop
      vertex -39.873737 36.31407 71.39014
      vertex -38.409874 36.878918 71.05298
      vertex -24.690321 40.44665 65.74772
    endloop
  endfacet
  facet normal -0.23473579 -0.6872162 -0.6874831
    outer loop
      vertex -27.074682 35.084545 68.249054
      vertex -28.81482 38.131134 65.797806
      vertex -25.28303 38.711433 64.011826
    endloop
  endfacet
  facet normal -0.23473579 -0.6872162 -0.6874831
    outer loop
      vertex -25.28303 38.711433 64.011826
      vertex -23.217632 35.095387 66.92125
      vertex -27.074682 35.084545 68.249054
    endloop
  endfacet
  facet normal -0.23473579 -0.6872162 -0.6874831
    outer loop
      vertex -35.5789 33.064342 73.172165
      vertex -32.372368 34.214096 70.92802
      vertex -23.217632 35.095387 66.92125
    endloop
  endfacet
  facet normal -0.4065743 0.71181965 -0.57272166
    outer loop
      vertex -24.690321 40.44665 65.74772
      vertex -38.409874 36.878918 71.05298
      vertex -38.232 36.932835 70.99371
    endloop
  endfacet
  facet normal -0.23473579 -0.6872162 -0.6874831
    outer loop
      vertex -23.217632 35.095387 66.92125
      vertex -32.372368 34.214096 70.92802
      vertex -27.074682 35.084545 68.249054
    endloop
  endfacet
  facet normal 0.4065743 -0.71181965 0.57272166
    outer loop
      vertex -35.5789 33.064342 73.172165
      vertex -23.217632 35.095387 66.92125
      vertex -22.624924 36.83061 68.65715
    endloop
  endfacet
  facet normal -0.4065743 0.71181965 -0.57272166
    outer loop
      vertex -24.690321 40.44665 65.74772
      vertex -25.28303 38.711433 64.011826
      vertex -28.81482 38.131134 65.797806
    endloop
  endfacet
  facet normal 0.26761657 -0.73004675 0.6288188
    outer loop
      vertex 8.567938 37.48903 42.38913
      vertex -4.746853 36.152145 46.503628
      vertex -7.5360785 34.202614 45.427315
    endloop
  endfacet
  facet normal -0.26761657 0.73004675 -0.6288188
    outer loop
      vertex 9.299385 39.672012 36.533604
      vertex 9.214172 39.70579 36.60909
      vertex 9.232242 39.701683 36.596622
    endloop
  endfacet
  facet normal -0.26761657 0.73004675 -0.6288188
    outer loop
      vertex 7.6141176 40.343456 38.03036
      vertex -9.008453 37.8338 42.191036
      vertex 7.5360994 40.44287 38.17899
    endloop
  endfacet
  facet normal -0.26761657 0.73004675 -0.6288188
    outer loop
      vertex 7.7516437 40.285603 37.904667
      vertex -9.008453 37.8338 42.191036
      vertex 7.6141176 40.343456 38.03036
    endloop
  endfacet
  facet normal -0.26761657 0.73004675 -0.6288188
    outer loop
      vertex 9.214172 39.70579 36.60909
      vertex -8.913347 37.84335 42.161648
      vertex 7.7516437 40.285603 37.904667
    endloop
  endfacet
  facet normal 0.26761657 -0.73004675 0.6288188
    outer loop
      vertex 10.908288 37.72401 41.665924
      vertex -7.5360785 34.202614 45.427315
      vertex 10.576896 36.02126 39.830097
    endloop
  endfacet
  facet normal -0.26761657 0.73004675 -0.6288188
    outer loop
      vertex 9.299385 39.672012 36.533604
      vertex -8.913347 37.84335 42.161648
      vertex 9.214172 39.70579 36.60909
    endloop
  endfacet
  facet normal 0.26761657 -0.73004675 0.6288188
    outer loop
      vertex -7.5360785 34.202614 45.427315
      vertex -4.746853 36.152145 46.503628
      vertex -7.087203 35.917164 47.226837
    endloop
  endfacet
  facet normal 0.1545085 0.6766928 0.7198708
    outer loop
      vertex -1.1567202 37.11815 44.825
      vertex -2.302119 40.24275 42.13366
      vertex -4.746853 36.152145 46.503628
    endloop
  endfacet
  facet normal 0.26761657 -0.73004675 0.6288188
    outer loop
      vertex 10.908288 37.72401 41.665924
      vertex 8.567938 37.48903 42.38913
      vertex -7.5360785 34.202614 45.427315
    endloop
  endfacet
  facet normal 0.1545085 0.6766928 0.7198708
    outer loop
      vertex 8.567938 37.48903 42.38913
      vertex 4.5496187 37.691097 43.061646
      vertex -4.746853 36.152145 46.503628
    endloop
  endfacet
  facet normal -0.26761657 0.73004675 -0.6288188
    outer loop
      vertex -7.134656 39.426945 43.243187
      vertex -8.553507 39.596058 44.04336
      vertex -8.507763 39.619667 44.051308
    endloop
  endfacet
  facet normal -0.26761657 0.73004675 -0.6288188
    outer loop
      vertex -2.302119 40.24275 42.13366
      vertex -6.736382 39.136345 42.736305
      vertex -6.7430153 39.26219 42.88523
    endloop
  endfacet
  facet normal -0.26761657 0.73004675 -0.6288188
    outer loop
      vertex -7.4935327 39.294086 43.24167
      vertex -7.621677 39.17397 43.156754
      vertex -8.55803 39.576317 44.02237
    endloop
  endfacet
  facet normal -0.26761657 0.73004675 -0.6288188
    outer loop
      vertex -7.322513 39.38292 43.272022
      vertex -7.4935327 39.294086 43.24167
      vertex -8.553507 39.596058 44.04336
    endloop
  endfacet
  facet normal -0.26761657 0.73004675 -0.6288188
    outer loop
      vertex -7.322513 39.38292 43.272022
      vertex -8.553507 39.596058 44.04336
      vertex -7.134656 39.426945 43.243187
    endloop
  endfacet
  facet normal -0.26761657 0.73004675 -0.6288188
    outer loop
      vertex -8.507763 39.619667 44.051308
      vertex -6.95856 39.419464 43.159554
      vertex -7.134656 39.426945 43.243187
    endloop
  endfacet
  facet normal -0.26761657 0.73004675 -0.6288188
    outer loop
      vertex 8.082249 40.95481 38.540905
      vertex 9.704969 41.44833 38.423264
      vertex 8.258345 40.947327 38.45727
    endloop
  endfacet
  facet normal -0.26761657 0.73004675 -0.6288188
    outer loop
      vertex 8.39587 40.889473 38.331573
      vertex 8.258345 40.947327 38.45727
      vertex 9.704969 41.44833 38.423264
    endloop
  endfacet
  facet normal -0.26761657 0.73004675 -0.6288188
    outer loop
      vertex -6.95856 39.419464 43.159554
      vertex -8.507763 39.619667 44.051308
      vertex -6.106345 39.860783 43.309227
    endloop
  endfacet
  facet normal -0.26761657 0.73004675 -0.6288188
    outer loop
      vertex -1.9038451 39.95215 41.626778
      vertex -9.008453 37.8338 42.191036
      vertex -2.302119 40.24275 42.13366
    endloop
  endfacet
  facet normal -0.26761657 0.73004675 -0.6288188
    outer loop
      vertex -2.302119 40.24275 42.13366
      vertex -6.802143 39.00323 42.60975
      vertex -6.736382 39.136345 42.736305
    endloop
  endfacet
  facet normal -0.26761657 0.73004675 -0.6288188
    outer loop
      vertex -9.008453 37.8338 42.191036
      vertex 2.8514376 40.429607 40.157314
      vertex 9.704969 41.44833 38.423264
    endloop
  endfacet
  facet normal -0.26761657 0.73004675 -0.6288188
    outer loop
      vertex -2.302119 40.24275 42.13366
      vertex -6.930288 38.883114 42.52483
      vertex -6.802143 39.00323 42.60975
    endloop
  endfacet
  facet normal -0.26761657 0.73004675 -0.6288188
    outer loop
      vertex -2.302119 40.24275 42.13366
      vertex -7.101307 38.79428 42.49448
      vertex -6.930288 38.883114 42.52483
    endloop
  endfacet
  facet normal -0.26761657 0.73004675 -0.6288188
    outer loop
      vertex -2.302119 40.24275 42.13366
      vertex -6.7430153 39.26219 42.88523
      vertex -6.106345 39.860783 43.309227
    endloop
  endfacet
  facet normal -0.26761657 0.73004675 -0.6288188
    outer loop
      vertex 2.8514376 40.429607 40.157314
      vertex -9.008453 37.8338 42.191036
      vertex -1.9038451 39.95215 41.626778
    endloop
  endfacet
  facet normal -0.26761657 0.73004675 -0.6288188
    outer loop
      vertex -6.106345 39.860783 43.309227
      vertex -6.821034 39.361607 43.033855
      vertex -6.95856 39.419464 43.159554
    endloop
  endfacet
  facet normal 0.1545085 0.6766928 0.7198708
    outer loop
      vertex 7.208446 41.197666 39.194733
      vertex 4.5496187 37.691097 43.061646
      vertex 8.567938 37.48903 42.38913
    endloop
  endfacet
  facet normal 0.1545085 0.6766928 0.7198708
    outer loop
      vertex 3.40422 40.8157 40.370304
      vertex 4.5496187 37.691097 43.061646
      vertex 7.208446 41.197666 39.194733
    endloop
  endfacet
  facet normal -0.26761657 0.73004675 -0.6288188
    outer loop
      vertex 7.208446 41.197666 39.194733
      vertex 2.8514376 40.429607 40.157314
      vertex 3.40422 40.8157 40.370304
    endloop
  endfacet
  facet normal -0.26761657 0.73004675 -0.6288188
    outer loop
      vertex 9.704969 41.44833 38.423264
      vertex 8.082249 40.95481 38.540905
      vertex -9.008453 37.8338 42.191036
    endloop
  endfacet
  facet normal -0.26761657 0.73004675 -0.6288188
    outer loop
      vertex -7.6808047 38.91501 42.88127
      vertex -8.915848 37.909218 42.23918
      vertex -8.55803 39.576317 44.02237
    endloop
  endfacet
  facet normal -0.26761657 0.73004675 -0.6288188
    outer loop
      vertex -9.008453 37.8338 42.191036
      vertex -7.4652605 38.757736 42.60695
      vertex -7.2891645 38.75025 42.523315
    endloop
  endfacet
  facet normal -0.26761657 0.73004675 -0.6288188
    outer loop
      vertex -9.008453 37.8338 42.191036
      vertex -7.101307 38.79428 42.49448
      vertex -2.302119 40.24275 42.13366
    endloop
  endfacet
  facet normal -0.26761657 0.73004675 -0.6288188
    outer loop
      vertex 8.082249 40.95481 38.540905
      vertex 7.894391 40.91078 38.56974
      vertex -9.008453 37.8338 42.191036
    endloop
  endfacet
  facet normal -0.26761657 0.73004675 -0.6288188
    outer loop
      vertex -8.55803 39.576317 44.02237
      vertex -8.553507 39.596058 44.04336
      vertex -7.4935327 39.294086 43.24167
    endloop
  endfacet
  facet normal -0.26761657 0.73004675 -0.6288188
    outer loop
      vertex -9.008453 37.8338 42.191036
      vertex -8.915848 37.909218 42.23918
      vertex -7.6027865 38.81559 42.732643
    endloop
  endfacet
  facet normal -0.26761657 0.73004675 -0.6288188
    outer loop
      vertex -7.6027865 38.81559 42.732643
      vertex -7.4652605 38.757736 42.60695
      vertex -9.008453 37.8338 42.191036
    endloop
  endfacet
  facet normal -0.26761657 0.73004675 -0.6288188
    outer loop
      vertex 9.704969 41.44833 38.423264
      vertex 8.473888 40.790054 38.18295
      vertex 8.39587 40.889473 38.331573
    endloop
  endfacet
  facet normal -0.26761657 0.73004675 -0.6288188
    outer loop
      vertex -9.008453 37.8338 42.191036
      vertex -7.2891645 38.75025 42.523315
      vertex -7.101307 38.79428 42.49448
    endloop
  endfacet
  facet normal -0.26761657 0.73004675 -0.6288188
    outer loop
      vertex 7.723372 40.82195 38.539387
      vertex -9.008453 37.8338 42.191036
      vertex 7.894391 40.91078 38.56974
    endloop
  endfacet
  facet normal -0.26761657 0.73004675 -0.6288188
    outer loop
      vertex 7.5952272 40.70183 38.45447
      vertex -9.008453 37.8338 42.191036
      vertex 7.723372 40.82195 38.539387
    endloop
  endfacet
  facet normal -0.26761657 0.73004675 -0.6288188
    outer loop
      vertex 7.5294657 40.568718 38.327915
      vertex -9.008453 37.8338 42.191036
      vertex 7.5952272 40.70183 38.45447
    endloop
  endfacet
  facet normal -0.26761657 0.73004675 -0.6288188
    outer loop
      vertex -7.6027865 38.81559 42.732643
      vertex -8.915848 37.909218 42.23918
      vertex -7.6808047 38.91501 42.88127
    endloop
  endfacet
  facet normal -0.26761657 0.73004675 -0.6288188
    outer loop
      vertex -9.008453 37.8338 42.191036
      vertex 7.5294657 40.568718 38.327915
      vertex 7.5360994 40.44287 38.17899
    endloop
  endfacet
  facet normal -0.26761657 0.73004675 -0.6288188
    outer loop
      vertex -6.7430153 39.26219 42.88523
      vertex -6.821034 39.361607 43.033855
      vertex -6.106345 39.860783 43.309227
    endloop
  endfacet
  facet normal -0.26761657 0.73004675 -0.6288188
    outer loop
      vertex 9.299385 39.672012 36.533604
      vertex 9.232242 39.701683 36.596622
      vertex 9.265318 39.705093 36.58651
    endloop
  endfacet
  facet normal 0.1545085 0.6766928 0.7198708
    outer loop
      vertex 4.5496187 37.691097 43.061646
      vertex -1.1567202 37.11815 44.825
      vertex -4.746853 36.152145 46.503628
    endloop
  endfacet
  facet normal -0.26761657 0.73004675 -0.6288188
    outer loop
      vertex -8.913347 37.84335 42.161648
      vertex -9.008453 37.8338 42.191036
      vertex 7.7516437 40.285603 37.904667
    endloop
  endfacet
  facet normal -0.26761657 0.73004675 -0.6288188
    outer loop
      vertex 9.30711 39.705845 36.569595
      vertex 9.299385 39.672012 36.533604
      vertex 9.265318 39.705093 36.58651
    endloop
  endfacet
  facet normal -0.26761657 0.73004675 -0.6288188
    outer loop
      vertex 9.219729 39.730133 36.63498
      vertex 9.214172 39.70579 36.60909
      vertex 8.286616 40.410976 37.822548
    endloop
  endfacet
  facet normal -0.26761657 0.73004675 -0.6288188
    outer loop
      vertex 9.704969 41.44833 38.423264
      vertex 2.8514376 40.429607 40.157314
      vertex 7.208446 41.197666 39.194733
    endloop
  endfacet
  facet normal 0.1545085 0.6766928 0.7198708
    outer loop
      vertex -2.302119 40.24275 42.13366
      vertex -6.106345 39.860783 43.309227
      vertex -4.746853 36.152145 46.503628
    endloop
  endfacet
  facet normal -0.26761657 0.73004675 -0.6288188
    outer loop
      vertex 9.214172 39.70579 36.60909
      vertex 7.7516437 40.285603 37.904667
      vertex 7.9277396 40.27812 37.821033
    endloop
  endfacet
  facet normal -0.26761657 0.73004675 -0.6288188
    outer loop
      vertex 9.214172 39.70579 36.60909
      vertex 7.9277396 40.27812 37.821033
      vertex 8.115598 40.322144 37.7922
    endloop
  endfacet
  facet normal -0.26761657 0.73004675 -0.6288188
    outer loop
      vertex 8.286616 40.410976 37.822548
      vertex 9.214172 39.70579 36.60909
      vertex 8.115598 40.322144 37.7922
    endloop
  endfacet
  facet normal -0.26761657 0.73004675 -0.6288188
    outer loop
      vertex 8.286616 40.410976 37.822548
      vertex 8.414761 40.531097 37.907467
      vertex 9.219729 39.730133 36.63498
    endloop
  endfacet
  facet normal -0.26761657 0.73004675 -0.6288188
    outer loop
      vertex 9.704969 41.44833 38.423264
      vertex 9.314836 39.73968 36.60559
      vertex 9.219729 39.730133 36.63498
    endloop
  endfacet
  facet normal -0.26761657 0.73004675 -0.6288188
    outer loop
      vertex -7.6874385 39.040855 43.030197
      vertex -7.6808047 38.91501 42.88127
      vertex -8.55803 39.576317 44.02237
    endloop
  endfacet
  facet normal -0.26761657 0.73004675 -0.6288188
    outer loop
      vertex 9.704969 41.44833 38.423264
      vertex 9.219729 39.730133 36.63498
      vertex 8.414761 40.531097 37.907467
    endloop
  endfacet
  facet normal -0.26761657 0.73004675 -0.6288188
    outer loop
      vertex -7.621677 39.17397 43.156754
      vertex -7.6874385 39.040855 43.030197
      vertex -8.55803 39.576317 44.02237
    endloop
  endfacet
  facet normal -0.26761657 0.73004675 -0.6288188
    outer loop
      vertex 9.704969 41.44833 38.423264
      vertex 8.414761 40.531097 37.907467
      vertex 8.480522 40.66421 38.034023
    endloop
  endfacet
  facet normal -0.26761657 0.73004675 -0.6288188
    outer loop
      vertex 9.704969 41.44833 38.423264
      vertex 8.480522 40.66421 38.034023
      vertex 8.473888 40.790054 38.18295
    endloop
  endfacet
  facet normal -0.26761657 0.73004675 -0.6288188
    outer loop
      vertex -6.4397497 49.083817 54.15889
      vertex -6.034165 50.860138 56.04855
      vertex -5.2153025 49.86794 54.54813
    endloop
  endfacet
  facet normal -0.26761657 0.73004675 -0.6288188
    outer loop
      vertex -6.4397497 49.083817 54.15889
      vertex -5.1306505 49.642677 54.250576
      vertex -4.9931245 49.58482 54.12488
    endloop
  endfacet
  facet normal -0.26761657 0.73004675 -0.6288188
    outer loop
      vertex -4.66252 50.254032 54.76112
      vertex 9.77715 52.44768 51.162582
      vertex -4.486424 50.246548 54.677486
    endloop
  endfacet
  facet normal -0.26761657 0.73004675 -0.6288188
    outer loop
      vertex 9.77715 52.44768 51.162582
      vertex -4.2708793 50.089275 54.403164
      vertex -4.348898 50.188694 54.55179
    endloop
  endfacet
  facet normal -0.26761657 0.73004675 -0.6288188
    outer loop
      vertex -4.486424 50.246548 54.677486
      vertex 9.77715 52.44768 51.162582
      vertex -4.348898 50.188694 54.55179
    endloop
  endfacet
  facet normal 0.26761657 -0.73004675 0.6288188
    outer loop
      vertex -4.6853046 46.048294 57.966675
      vertex -2.583734 45.625847 56.58182
      vertex 10.731057 46.962727 52.467323
    endloop
  endfacet
  facet normal -0.1545085 -0.6766928 -0.7198708
    outer loop
      vertex 1.0063988 46.59185 54.903194
      vertex 10.731057 46.962727 52.467323
      vertex -2.583734 45.625847 56.58182
    endloop
  endfacet
  facet normal 0.26761657 -0.73004675 0.6288188
    outer loop
      vertex -4.6853046 46.048294 57.966675
      vertex 11.136642 48.739044 54.356983
      vertex -4.579567 47.16105 59.21356
    endloop
  endfacet
  facet normal 0.26761657 -0.73004675 0.6288188
    outer loop
      vertex 11.136642 48.739044 54.356983
      vertex -4.6853046 46.048294 57.966675
      vertex 10.731057 46.962727 52.467323
    endloop
  endfacet
  facet normal -0.26761657 0.73004675 -0.6288188
    outer loop
      vertex -6.4397497 49.083817 54.15889
      vertex 9.77715 52.44768 51.162582
      vertex 0.4137824 50.102543 52.42484
    endloop
  endfacet
  facet normal -0.26761657 0.73004675 -0.6288188
    outer loop
      vertex 9.77715 52.44768 51.162582
      vertex -6.4397497 49.083817 54.15889
      vertex -4.8170285 49.57734 54.04125
    endloop
  endfacet
  facet normal -0.26761657 0.73004675 -0.6288188
    outer loop
      vertex 9.77715 52.44768 51.162582
      vertex -4.8170285 49.57734 54.04125
      vertex -4.629171 49.621365 54.012413
    endloop
  endfacet
  facet normal -0.26761657 0.73004675 -0.6288188
    outer loop
      vertex 9.77715 52.44768 51.162582
      vertex -4.629171 49.621365 54.012413
      vertex -4.458152 49.710197 54.042763
    endloop
  endfacet
  facet normal -0.26761657 0.73004675 -0.6288188
    outer loop
      vertex 9.77715 52.44768 51.162582
      vertex -4.458152 49.710197 54.042763
      vertex -4.330007 49.830315 54.12768
    endloop
  endfacet
  facet normal -0.26761657 0.73004675 -0.6288188
    outer loop
      vertex 9.77715 52.44768 51.162582
      vertex -4.330007 49.830315 54.12768
      vertex -4.264246 49.96343 54.25424
    endloop
  endfacet
  facet normal -0.26761657 0.73004675 -0.6288188
    outer loop
      vertex 9.77715 52.44768 51.162582
      vertex -4.264246 49.96343 54.25424
      vertex -4.2708793 50.089275 54.403164
    endloop
  endfacet
  facet normal -0.26761657 0.73004675 -0.6288188
    outer loop
      vertex -5.208669 49.742092 54.399204
      vertex -6.4397497 49.083817 54.15889
      vertex -5.2153025 49.86794 54.54813
    endloop
  endfacet
  facet normal -0.1545085 -0.6766928 -0.7198708
    outer loop
      vertex 9.371565 50.671364 49.272923
      vertex 6.712738 47.1648 53.13984
      vertex 5.567339 50.2894 50.448494
    endloop
  endfacet
  facet normal -0.26761657 0.73004675 -0.6288188
    outer loop
      vertex 5.567339 50.2894 50.448494
      vertex 5.169065 50.579998 50.955376
      vertex 9.77715 52.44768 51.162582
    endloop
  endfacet
  facet normal -0.1545085 -0.6766928 -0.7198708
    outer loop
      vertex 1.0063988 46.59185 54.903194
      vertex 6.712738 47.1648 53.13984
      vertex 10.731057 46.962727 52.467323
    endloop
  endfacet
  facet normal -0.26761657 0.73004675 -0.6288188
    outer loop
      vertex 5.169065 50.579998 50.955376
      vertex 0.4137824 50.102543 52.42484
      vertex 9.77715 52.44768 51.162582
    endloop
  endfacet
  facet normal -0.1545085 -0.6766928 -0.7198708
    outer loop
      vertex 10.731057 46.962727 52.467323
      vertex 6.712738 47.1648 53.13984
      vertex 9.371565 50.671364 49.272923
    endloop
  endfacet
  facet normal -0.26761657 0.73004675 -0.6288188
    outer loop
      vertex 9.77715 52.44768 51.162582
      vertex 9.371565 50.671364 49.272923
      vertex 5.567339 50.2894 50.448494
    endloop
  endfacet
  facet normal -0.26761657 0.73004675 -0.6288188
    outer loop
      vertex -4.66252 50.254032 54.76112
      vertex -4.8503776 50.210003 54.789955
      vertex -6.034165 50.860138 56.04855
    endloop
  endfacet
  facet normal -0.26761657 0.73004675 -0.6288188
    outer loop
      vertex -4.8503776 50.210003 54.789955
      vertex -5.0213966 50.12117 54.7596
      vertex -6.034165 50.860138 56.04855
    endloop
  endfacet
  facet normal -0.26761657 0.73004675 -0.6288188
    outer loop
      vertex -5.0213966 50.12117 54.7596
      vertex -5.149541 50.001053 54.674686
      vertex -6.034165 50.860138 56.04855
    endloop
  endfacet
  facet normal -0.26761657 0.73004675 -0.6288188
    outer loop
      vertex -5.149541 50.001053 54.674686
      vertex -5.2153025 49.86794 54.54813
      vertex -6.034165 50.860138 56.04855
    endloop
  endfacet
  facet normal 0.1545085 0.6766928 0.7198708
    outer loop
      vertex -4.579567 47.16105 59.21356
      vertex 9.77715 52.44768 51.162582
      vertex -6.034165 50.860138 56.04855
    endloop
  endfacet
  facet normal -0.26761657 0.73004675 -0.6288188
    outer loop
      vertex 9.77715 52.44768 51.162582
      vertex -4.66252 50.254032 54.76112
      vertex -6.034165 50.860138 56.04855
    endloop
  endfacet
  facet normal -0.26761657 0.73004675 -0.6288188
    outer loop
      vertex -5.1306505 49.642677 54.250576
      vertex -6.4397497 49.083817 54.15889
      vertex -5.208669 49.742092 54.399204
    endloop
  endfacet
  facet normal -0.26761657 0.73004675 -0.6288188
    outer loop
      vertex -4.8170285 49.57734 54.04125
      vertex -6.4397497 49.083817 54.15889
      vertex -4.9931245 49.58482 54.12488
    endloop
  endfacet
  facet normal 0.1545085 0.6766928 0.7198708
    outer loop
      vertex 11.136642 48.739044 54.356983
      vertex 9.77715 52.44768 51.162582
      vertex -4.579567 47.16105 59.21356
    endloop
  endfacet
  facet normal 0.26761657 -0.73004675 0.6288188
    outer loop
      vertex -2.583734 45.625847 56.58182
      vertex -4.6853046 46.048294 57.966675
      vertex -4.833335 45.39997 57.276985
    endloop
  endfacet
  facet normal -0.1545085 -0.6766928 -0.7198708
    outer loop
      vertex 1.0063988 46.59185 54.903194
      vertex -2.583734 45.625847 56.58182
      vertex -3.943226 49.334484 53.38742
    endloop
  endfacet
  facet normal -0.26761657 0.73004675 -0.6288188
    outer loop
      vertex 0.4137824 50.102543 52.42484
      vertex -0.13900013 49.71645 52.21185
      vertex -3.943226 49.334484 53.38742
    endloop
  endfacet
  facet normal -0.1545085 -0.6766928 -0.7198708
    outer loop
      vertex -0.13900013 49.71645 52.21185
      vertex 1.0063988 46.59185 54.903194
      vertex -3.943226 49.334484 53.38742
    endloop
  endfacet
  facet normal -0.26761657 0.73004675 -0.6288188
    outer loop
      vertex -3.943226 49.334484 53.38742
      vertex -6.4397497 49.083817 54.15889
      vertex 0.4137824 50.102543 52.42484
    endloop
  endfacet
  facet normal -0.12052744 0.7405404 -0.661115
    outer loop
      vertex 33.215122 11.49631 34.14955
      vertex 34.609776 12.266591 34.758114
      vertex 34.796608 12.249295 34.704678
    endloop
  endfacet
  facet normal 0.12052744 -0.7405404 0.661115
    outer loop
      vertex 36.503536 9.536308 39.03856
      vertex 33.90408 9.423415 39.386005
      vertex 52.69201 8.553645 34.98653
    endloop
  endfacet
  facet normal 0.06958655 0.67063427 0.73851705
    outer loop
      vertex 40.368187 10.300768 37.98022
      vertex 36.503536 9.536308 39.03856
      vertex 46.30979 10.558809 37.18605
    endloop
  endfacet
  facet normal -0.12052744 0.7405404 -0.661115
    outer loop
      vertex 52.255436 14.008942 33.49282
      vertex 45.264008 13.371502 34.053402
      vertex 49.75501 13.90035 33.827034
    endloop
  endfacet
  facet normal -0.12052744 0.7405404 -0.661115
    outer loop
      vertex 45.264008 13.371502 34.053402
      vertex 45.793938 13.728322 34.35648
      vertex 49.75501 13.90035 33.827034
    endloop
  endfacet
  facet normal -0.12052744 0.7405404 -0.661115
    outer loop
      vertex 50.710484 13.608039 33.325413
      vertex 33.215122 11.49631 34.14955
      vertex 52.255436 14.008942 33.49282
    endloop
  endfacet
  facet normal 0.06958655 0.67063427 0.73851705
    outer loop
      vertex 46.30979 10.558809 37.18605
      vertex 36.503536 9.536308 39.03856
      vertex 50.367287 10.138404 37.185497
    endloop
  endfacet
  facet normal -0.12052744 0.7405404 -0.661115
    outer loop
      vertex 33.215122 11.49631 34.14955
      vertex 50.640896 12.937405 32.586895
      vertex 52.04655 12.31415 31.6325
    endloop
  endfacet
  facet normal -0.12052744 0.7405404 -0.661115
    outer loop
      vertex 50.518356 13.5742855 33.32263
      vertex 33.215122 11.49631 34.14955
      vertex 50.710484 13.608039 33.325413
    endloop
  endfacet
  facet normal -0.12052744 0.7405404 -0.661115
    outer loop
      vertex 50.35018 13.494622 33.264057
      vertex 33.215122 11.49631 34.14955
      vertex 50.518356 13.5742855 33.32263
    endloop
  endfacet
  facet normal -0.12052744 0.7405404 -0.661115
    outer loop
      vertex 33.215122 11.49631 34.14955
      vertex 45.264008 13.371502 34.053402
      vertex 52.255436 14.008942 33.49282
    endloop
  endfacet
  facet normal 0.12052744 -0.7405404 0.661115
    outer loop
      vertex 33.728374 7.730064 37.52125
      vertex 52.69201 8.553645 34.98653
      vertex 33.90408 9.423415 39.386005
    endloop
  endfacet
  facet normal -0.12052744 0.7405404 -0.661115
    outer loop
      vertex 50.23156 13.381176 33.158607
      vertex 33.215122 11.49631 34.14955
      vertex 50.35018 13.494622 33.264057
    endloop
  endfacet
  facet normal -0.12052744 0.7405404 -0.661115
    outer loop
      vertex 50.180557 13.251219 33.022335
      vertex 33.215122 11.49631 34.14955
      vertex 50.23156 13.381176 33.158607
    endloop
  endfacet
  facet normal -0.12052744 0.7405404 -0.661115
    outer loop
      vertex 50.20493 13.124536 32.875988
      vertex 33.215122 11.49631 34.14955
      vertex 50.180557 13.251219 33.022335
    endloop
  endfacet
  facet normal 0.12052744 -0.7405404 0.661115
    outer loop
      vertex 50.367287 10.138404 37.185497
      vertex 52.69201 8.553645 34.98653
      vertex 52.867714 10.246997 36.851284
    endloop
  endfacet
  facet normal -0.12052744 0.7405404 -0.661115
    outer loop
      vertex 33.215122 11.49631 34.14955
      vertex 50.454067 12.9547 32.64033
      vertex 50.640896 12.937405 32.586895
    endloop
  endfacet
  facet normal -0.12052744 0.7405404 -0.661115
    outer loop
      vertex 33.215122 11.49631 34.14955
      vertex 50.300976 13.0204115 32.741844
      vertex 50.454067 12.9547 32.64033
    endloop
  endfacet
  facet normal -0.12052744 0.7405404 -0.661115
    outer loop
      vertex 33.215122 11.49631 34.14955
      vertex 50.20493 13.124536 32.875988
      vertex 50.300976 13.0204115 32.741844
    endloop
  endfacet
  facet normal -0.12052744 0.7405404 -0.661115
    outer loop
      vertex 39.85233 13.470281 35.150646
      vertex 35.15691 12.362713 34.766037
      vertex 35.27553 12.476159 34.871487
    endloop
  endfacet
  facet normal -0.12052744 0.7405404 -0.661115
    outer loop
      vertex 34.38727 12.693067 35.27639
      vertex 33.390827 13.189661 36.014305
      vertex 34.50589 12.806512 35.38184
    endloop
  endfacet
  facet normal -0.12052744 0.7405404 -0.661115
    outer loop
      vertex 34.50589 12.806512 35.38184
      vertex 33.390827 13.189661 36.014305
      vertex 34.674065 12.886176 35.440414
    endloop
  endfacet
  facet normal -0.12052744 0.7405404 -0.661115
    outer loop
      vertex 34.674065 12.886176 35.440414
      vertex 33.390827 13.189661 36.014305
      vertex 34.866196 12.9199295 35.443195
    endloop
  endfacet
  facet normal -0.12052744 0.7405404 -0.661115
    outer loop
      vertex 34.866196 12.9199295 35.443195
      vertex 33.390827 13.189661 36.014305
      vertex 35.053024 12.902635 35.389763
    endloop
  endfacet
  facet normal -0.12052744 0.7405404 -0.661115
    outer loop
      vertex 35.053024 12.902635 35.389763
      vertex 33.390827 13.189661 36.014305
      vertex 35.891254 13.298254 35.68009
    endloop
  endfacet
  facet normal -0.12052744 0.7405404 -0.661115
    outer loop
      vertex 35.206116 12.836923 35.288246
      vertex 35.053024 12.902635 35.389763
      vertex 35.891254 13.298254 35.68009
    endloop
  endfacet
  facet normal -0.12052744 0.7405404 -0.661115
    outer loop
      vertex 35.30216 12.7328 35.154102
      vertex 35.206116 12.836923 35.288246
      vertex 35.891254 13.298254 35.68009
    endloop
  endfacet
  facet normal -0.12052744 0.7405404 -0.661115
    outer loop
      vertex 39.85233 13.470281 35.150646
      vertex 34.988735 12.283049 34.707462
      vertex 35.15691 12.362713 34.766037
    endloop
  endfacet
  facet normal -0.12052744 0.7405404 -0.661115
    outer loop
      vertex 34.38727 12.693067 35.27639
      vertex 34.336266 12.563109 35.140118
      vertex 33.390827 13.189661 36.014305
    endloop
  endfacet
  facet normal -0.12052744 0.7405404 -0.661115
    outer loop
      vertex 39.85233 13.470281 35.150646
      vertex 35.27553 12.476159 34.871487
      vertex 35.326534 12.606116 35.00776
    endloop
  endfacet
  facet normal -0.12052744 0.7405404 -0.661115
    outer loop
      vertex 39.85233 13.470281 35.150646
      vertex 35.326534 12.606116 35.00776
      vertex 35.30216 12.7328 35.154102
    endloop
  endfacet
  facet normal -0.12052744 0.7405404 -0.661115
    outer loop
      vertex 39.85233 13.470281 35.150646
      vertex 35.30216 12.7328 35.154102
      vertex 35.891254 13.298254 35.68009
    endloop
  endfacet
  facet normal 0.06958655 0.67063427 0.73851705
    outer loop
      vertex 39.85233 13.470281 35.150646
      vertex 35.891254 13.298254 35.68009
      vertex 36.503536 9.536308 39.03856
    endloop
  endfacet
  facet normal 0.06958655 0.67063427 0.73851705
    outer loop
      vertex 39.85233 13.470281 35.150646
      vertex 36.503536 9.536308 39.03856
      vertex 40.368187 10.300768 37.98022
    endloop
  endfacet
  facet normal 0.06958655 0.67063427 0.73851705
    outer loop
      vertex 49.75501 13.90035 33.827034
      vertex 46.30979 10.558809 37.18605
      vertex 50.367287 10.138404 37.185497
    endloop
  endfacet
  facet normal 0.06958655 0.67063427 0.73851705
    outer loop
      vertex 49.75501 13.90035 33.827034
      vertex 45.793938 13.728322 34.35648
      vertex 46.30979 10.558809 37.18605
    endloop
  endfacet
  facet normal 0.12052744 -0.7405404 0.661115
    outer loop
      vertex 50.367287 10.138404 37.185497
      vertex 36.503536 9.536308 39.03856
      vertex 52.69201 8.553645 34.98653
    endloop
  endfacet
  facet normal -0.12052744 0.7405404 -0.661115
    outer loop
      vertex 52.255436 14.008942 33.49282
      vertex 51.14645 13.420909 33.03632
      vertex 51.050404 13.525032 33.170464
    endloop
  endfacet
  facet normal -0.12052744 0.7405404 -0.661115
    outer loop
      vertex 52.04655 12.31415 31.6325
      vertex 50.833023 12.971159 32.589676
      vertex 51.0012 13.050822 32.64825
    endloop
  endfacet
  facet normal -0.12052744 0.7405404 -0.661115
    outer loop
      vertex 52.077198 12.2912035 31.60121
      vertex 52.04655 12.31415 31.6325
      vertex 52.255436 14.008942 33.49282
    endloop
  endfacet
  facet normal -0.12052744 0.7405404 -0.661115
    outer loop
      vertex 52.255436 14.008942 33.49282
      vertex 52.04655 12.31415 31.6325
      vertex 51.0012 13.050822 32.64825
    endloop
  endfacet
  facet normal -0.12052744 0.7405404 -0.661115
    outer loop
      vertex 52.255436 14.008942 33.49282
      vertex 51.0012 13.050822 32.64825
      vertex 51.11982 13.1642685 32.7537
    endloop
  endfacet
  facet normal -0.12052744 0.7405404 -0.661115
    outer loop
      vertex 52.255436 14.008942 33.49282
      vertex 51.11982 13.1642685 32.7537
      vertex 51.170822 13.294226 32.889973
    endloop
  endfacet
  facet normal -0.12052744 0.7405404 -0.661115
    outer loop
      vertex 52.255436 14.008942 33.49282
      vertex 51.170822 13.294226 32.889973
      vertex 51.14645 13.420909 33.03632
    endloop
  endfacet
  facet normal -0.12052744 0.7405404 -0.661115
    outer loop
      vertex 33.215122 11.49631 34.14955
      vertex 34.456684 12.332302 34.85963
      vertex 34.609776 12.266591 34.758114
    endloop
  endfacet
  facet normal -0.12052744 0.7405404 -0.661115
    outer loop
      vertex 33.215122 11.49631 34.14955
      vertex 34.796608 12.249295 34.704678
      vertex 34.988735 12.283049 34.707462
    endloop
  endfacet
  facet normal -0.12052744 0.7405404 -0.661115
    outer loop
      vertex 52.04655 12.31415 31.6325
      vertex 50.640896 12.937405 32.586895
      vertex 50.833023 12.971159 32.589676
    endloop
  endfacet
  facet normal -0.12052744 0.7405404 -0.661115
    outer loop
      vertex 33.215122 11.49631 34.14955
      vertex 34.988735 12.283049 34.707462
      vertex 39.85233 13.470281 35.150646
    endloop
  endfacet
  facet normal -0.12052744 0.7405404 -0.661115
    outer loop
      vertex 33.215122 11.49631 34.14955
      vertex 39.85233 13.470281 35.150646
      vertex 40.312668 13.156467 34.71521
    endloop
  endfacet
  facet normal -0.12052744 0.7405404 -0.661115
    outer loop
      vertex 45.264008 13.371502 34.053402
      vertex 33.215122 11.49631 34.14955
      vertex 40.312668 13.156467 34.71521
    endloop
  endfacet
  facet normal -0.12052744 0.7405404 -0.661115
    outer loop
      vertex 50.710484 13.608039 33.325413
      vertex 52.255436 14.008942 33.49282
      vertex 50.897316 13.590744 33.271976
    endloop
  endfacet
  facet normal -0.12052744 0.7405404 -0.661115
    outer loop
      vertex 52.255436 14.008942 33.49282
      vertex 51.050404 13.525032 33.170464
      vertex 50.897316 13.590744 33.271976
    endloop
  endfacet
  facet normal -0.12052744 0.7405404 -0.661115
    outer loop
      vertex 34.456684 12.332302 34.85963
      vertex 33.215122 11.49631 34.14955
      vertex 33.390827 13.189661 36.014305
    endloop
  endfacet
  facet normal -0.12052744 0.7405404 -0.661115
    outer loop
      vertex 34.456684 12.332302 34.85963
      vertex 33.390827 13.189661 36.014305
      vertex 34.36064 12.436425 34.99377
    endloop
  endfacet
  facet normal -0.12052744 0.7405404 -0.661115
    outer loop
      vertex 34.336266 12.563109 35.140118
      vertex 34.36064 12.436425 34.99377
      vertex 33.390827 13.189661 36.014305
    endloop
  endfacet
  facet normal -0.12052744 0.7405404 -0.661115
    outer loop
      vertex 35.500656 23.423214 47.092663
      vertex 34.540745 24.271893 48.2183
      vertex 35.619274 23.536661 47.198112
    endloop
  endfacet
  facet normal -0.12052744 0.7405404 -0.661115
    outer loop
      vertex 50.904926 24.98258 46.031025
      vertex 36.43992 23.336264 46.824028
      vertex 36.415546 23.462948 46.970375
    endloop
  endfacet
  facet normal -0.06958655 -0.67063427 -0.73851705
    outer loop
      vertex 50.72922 23.289228 44.16627
      vertex 51.3415 19.527285 47.524734
      vertex 47.284004 19.94769 47.525288
    endloop
  endfacet
  facet normal -0.12052744 0.7405404 -0.661115
    outer loop
      vertex 50.904926 24.98258 46.031025
      vertex 36.3195 23.567072 47.10452
      vertex 36.16641 23.632782 47.206036
    endloop
  endfacet
  facet normal -0.12052744 0.7405404 -0.661115
    outer loop
      vertex 35.97958 23.650078 47.259468
      vertex 34.540745 24.271893 48.2183
      vertex 50.904926 24.98258 46.031025
    endloop
  endfacet
  facet normal -0.06958655 -0.67063427 -0.73851705
    outer loop
      vertex 37.477745 18.925188 49.377796
      vertex 36.865467 22.687134 46.019333
      vertex 41.342396 19.689648 48.319458
    endloop
  endfacet
  facet normal -0.12052744 0.7405404 -0.661115
    outer loop
      vertex 35.44965 23.293257 46.95639
      vertex 34.540745 24.271893 48.2183
      vertex 35.500656 23.423214 47.092663
    endloop
  endfacet
  facet normal 0.12052744 -0.7405404 0.661115
    outer loop
      vertex 35.053997 20.505648 51.59
      vertex 34.878292 18.812296 49.725246
      vertex 37.477745 18.925188 49.377796
    endloop
  endfacet
  facet normal -0.12052744 0.7405404 -0.661115
    outer loop
      vertex 35.619274 23.536661 47.198112
      vertex 34.540745 24.271893 48.2183
      vertex 35.78745 23.616325 47.256687
    endloop
  endfacet
  facet normal -0.12052744 0.7405404 -0.661115
    outer loop
      vertex 36.16641 23.632782 47.206036
      vertex 35.97958 23.650078 47.259468
      vertex 50.904926 24.98258 46.031025
    endloop
  endfacet
  facet normal -0.12052744 0.7405404 -0.661115
    outer loop
      vertex 50.904926 24.98258 46.031025
      vertex 36.415546 23.462948 46.970375
      vertex 36.3195 23.567072 47.10452
    endloop
  endfacet
  facet normal -0.06958655 -0.67063427 -0.73851705
    outer loop
      vertex 47.284004 19.94769 47.525288
      vertex 46.768147 23.117203 44.695717
      vertex 50.72922 23.289228 44.16627
    endloop
  endfacet
  facet normal -0.12052744 0.7405404 -0.661115
    outer loop
      vertex 36.43992 23.336264 46.824028
      vertex 50.904926 24.98258 46.031025
      vertex 36.388916 23.206306 46.68776
    endloop
  endfacet
  facet normal -0.06958655 -0.67063427 -0.73851705
    outer loop
      vertex 51.3415 19.527285 47.524734
      vertex 37.477745 18.925188 49.377796
      vertex 41.342396 19.689648 48.319458
    endloop
  endfacet
  facet normal -0.12052744 0.7405404 -0.661115
    outer loop
      vertex 50.904926 24.98258 46.031025
      vertex 36.270294 23.092861 46.58231
      vertex 36.388916 23.206306 46.68776
    endloop
  endfacet
  facet normal -0.12052744 0.7405404 -0.661115
    outer loop
      vertex 41.35647 23.21598 45.792965
      vertex 34.36504 22.57854 46.353546
      vertex 50.904926 24.98258 46.031025
    endloop
  endfacet
  facet normal -0.12052744 0.7405404 -0.661115
    outer loop
      vertex 50.904926 24.98258 46.031025
      vertex 36.10212 23.013197 46.523735
      vertex 36.270294 23.092861 46.58231
    endloop
  endfacet
  facet normal -0.12052744 0.7405404 -0.661115
    outer loop
      vertex 50.904926 24.98258 46.031025
      vertex 35.909992 22.979445 46.52095
      vertex 36.10212 23.013197 46.523735
    endloop
  endfacet
  facet normal -0.12052744 0.7405404 -0.661115
    outer loop
      vertex 34.36504 22.57854 46.353546
      vertex 35.909992 22.979445 46.52095
      vertex 50.904926 24.98258 46.031025
    endloop
  endfacet
  facet normal 0.12052744 -0.7405404 0.661115
    outer loop
      vertex 35.3974 20.56161 51.59008
      vertex 45.215385 20.98297 50.272152
      vertex 35.159985 20.577011 51.650616
    endloop
  endfacet
  facet normal 0.12052744 -0.7405404 0.661115
    outer loop
      vertex 35.159985 20.577011 51.650616
      vertex 35.06096 20.57271 51.663853
      vertex 35.3974 20.56161 51.59008
    endloop
  endfacet
  facet normal -0.12052744 0.7405404 -0.661115
    outer loop
      vertex 50.904926 24.98258 46.031025
      vertex 50.72922 23.289228 44.16627
      vertex 46.768147 23.117203 44.695717
    endloop
  endfacet
  facet normal -0.12052744 0.7405404 -0.661115
    outer loop
      vertex 35.78745 23.616325 47.256687
      vertex 34.540745 24.271893 48.2183
      vertex 35.97958 23.650078 47.259468
    endloop
  endfacet
  facet normal -0.12052744 0.7405404 -0.661115
    outer loop
      vertex 40.826538 22.859161 45.489887
      vertex 36.865467 22.687134 46.019333
      vertex 41.35647 23.21598 45.792965
    endloop
  endfacet
  facet normal -0.06958655 -0.67063427 -0.73851705
    outer loop
      vertex 36.865467 22.687134 46.019333
      vertex 40.826538 22.859161 45.489887
      vertex 41.342396 19.689648 48.319458
    endloop
  endfacet
  facet normal -0.12052744 0.7405404 -0.661115
    outer loop
      vertex 36.865467 22.687134 46.019333
      vertex 34.36504 22.57854 46.353546
      vertex 41.35647 23.21598 45.792965
    endloop
  endfacet
  facet normal -0.12052744 0.7405404 -0.661115
    outer loop
      vertex 35.570072 23.06245 46.675903
      vertex 34.36504 22.57854 46.353546
      vertex 35.474026 23.166574 46.810043
    endloop
  endfacet
  facet normal -0.12052744 0.7405404 -0.661115
    outer loop
      vertex 34.36504 22.57854 46.353546
      vertex 35.72316 22.996738 46.574387
      vertex 35.909992 22.979445 46.52095
    endloop
  endfacet
  facet normal -0.12052744 0.7405404 -0.661115
    outer loop
      vertex 34.36504 22.57854 46.353546
      vertex 35.570072 23.06245 46.675903
      vertex 35.72316 22.996738 46.574387
    endloop
  endfacet
  facet normal -0.12052744 0.7405404 -0.661115
    outer loop
      vertex 34.36504 22.57854 46.353546
      vertex 35.44965 23.293257 46.95639
      vertex 35.474026 23.166574 46.810043
    endloop
  endfacet
  facet normal -0.12052744 0.7405404 -0.661115
    outer loop
      vertex 34.36504 22.57854 46.353546
      vertex 34.540745 24.271893 48.2183
      vertex 35.44965 23.293257 46.95639
    endloop
  endfacet
  facet normal 0.12052744 -0.7405404 0.661115
    outer loop
      vertex 51.524162 21.287699 49.46334
      vertex 45.215385 20.98297 50.272152
      vertex 51.517204 21.220636 49.389492
    endloop
  endfacet
  facet normal 0.12052744 -0.7405404 0.661115
    outer loop
      vertex 51.517204 21.220636 49.389492
      vertex 35.053997 20.505648 51.59
      vertex 51.3415 19.527285 47.524734
    endloop
  endfacet
  facet normal 0.12052744 -0.7405404 0.661115
    outer loop
      vertex 51.524162 21.287699 49.46334
      vertex 35.159985 20.577011 51.650616
      vertex 45.215385 20.98297 50.272152
    endloop
  endfacet
  facet normal 0.12052744 -0.7405404 0.661115
    outer loop
      vertex 35.053997 20.505648 51.59
      vertex 37.477745 18.925188 49.377796
      vertex 51.3415 19.527285 47.524734
    endloop
  endfacet
  facet normal -0.12052744 0.7405404 -0.661115
    outer loop
      vertex 50.904926 24.98258 46.031025
      vertex 46.768147 23.117203 44.695717
      vertex 46.307808 23.431015 45.131157
    endloop
  endfacet
  facet normal -0.12052744 0.7405404 -0.661115
    outer loop
      vertex 41.35647 23.21598 45.792965
      vertex 50.904926 24.98258 46.031025
      vertex 46.307808 23.431015 45.131157
    endloop
  endfacet
  facet normal -0.06958655 -0.67063427 -0.73851705
    outer loop
      vertex 41.342396 19.689648 48.319458
      vertex 47.284004 19.94769 47.525288
      vertex 51.3415 19.527285 47.524734
    endloop
  endfacet
  facet normal -0.21728604 0.5369888 -0.81512564
    outer loop
      vertex 28.494373 14.966908 21.501015
      vertex 26.92689 15.744606 22.431187
      vertex 27.11111 15.725909 22.369762
    endloop
  endfacet
  facet normal -0.21728604 0.5369888 -0.81512564
    outer loop
      vertex 28.494373 14.966908 21.501015
      vertex 27.11111 15.725909 22.369762
      vertex 27.299765 15.771208 22.349316
    endloop
  endfacet
  facet normal -0.21728604 0.5369888 -0.81512564
    outer loop
      vertex 27.579182 16.017515 22.437094
      vertex 28.53745 14.970094 21.49163
      vertex 27.46413 15.873607 22.37296
    endloop
  endfacet
  facet normal -0.21728604 0.5369888 -0.81512564
    outer loop
      vertex 27.299765 15.771208 22.349316
      vertex 27.46413 15.873607 22.37296
      vertex 28.53745 14.970094 21.49163
    endloop
  endfacet
  facet normal -0.21728604 0.5369888 -0.81512564
    outer loop
      vertex 28.53745 14.970094 21.49163
      vertex 28.494373 14.966908 21.501015
      vertex 27.299765 15.771208 22.349316
    endloop
  endfacet
  facet normal -0.21728604 0.5369888 -0.81512564
    outer loop
      vertex 23.488232 14.598489 22.592783
      vertex 25.18313 14.654991 22.1782
      vertex 9.969777 13.561872 25.51346
    endloop
  endfacet
  facet normal -0.21728604 0.5369888 -0.81512564
    outer loop
      vertex 16.938448 15.836736 25.154474
      vertex 21.810297 16.184305 24.084768
      vertex 9.969777 13.561872 25.51346
    endloop
  endfacet
  facet normal -0.21728604 0.5369888 -0.81512564
    outer loop
      vertex 28.555792 14.9714365 21.487625
      vertex 28.53745 14.970094 21.49163
      vertex 27.579182 16.017515 22.437094
    endloop
  endfacet
  facet normal -0.21728604 0.5369888 -0.81512564
    outer loop
      vertex 28.544025 15.066583 21.553442
      vertex 28.555792 14.9714365 21.487625
      vertex 27.579182 16.017515 22.437094
    endloop
  endfacet
  facet normal -0.21728604 0.5369888 -0.81512564
    outer loop
      vertex 27.353556 16.547932 22.846668
      vertex 27.169333 16.56663 22.908092
      vertex 28.781796 17.099949 22.829603
    endloop
  endfacet
  facet normal -0.21728604 0.5369888 -0.81512564
    outer loop
      vertex 28.573305 14.972744 21.483818
      vertex 28.555792 14.9714365 21.487625
      vertex 28.544025 15.066583 21.553442
    endloop
  endfacet
  facet normal -0.21728604 0.5369888 -0.81512564
    outer loop
      vertex 23.488232 14.598489 22.592783
      vertex 26.92689 15.744606 22.431187
      vertex 28.494373 14.966908 21.501015
    endloop
  endfacet
  facet normal -0.21728604 0.5369888 -0.81512564
    outer loop
      vertex 28.781796 17.099949 22.829603
      vertex 27.627407 16.181026 22.531956
      vertex 27.601463 16.339245 22.643105
    endloop
  endfacet
  facet normal -0.21728604 0.5369888 -0.81512564
    outer loop
      vertex 27.505299 16.468086 22.753616
      vertex 28.781796 17.099949 22.829603
      vertex 27.601463 16.339245 22.643105
    endloop
  endfacet
  facet normal -0.21728604 0.5369888 -0.81512564
    outer loop
      vertex 16.480373 16.22234 25.530611
      vertex 16.938448 15.836736 25.154474
      vertex 9.969777 13.561872 25.51346
    endloop
  endfacet
  facet normal -0.21728604 0.5369888 -0.81512564
    outer loop
      vertex 16.480373 16.22234 25.530611
      vertex 12.037486 15.068808 25.955015
      vertex 12.011542 15.227026 26.066162
    endloop
  endfacet
  facet normal -0.21728604 0.5369888 -0.81512564
    outer loop
      vertex 28.781796 17.099949 22.829603
      vertex 27.579182 16.017515 22.437094
      vertex 27.627407 16.181026 22.531956
    endloop
  endfacet
  facet normal -0.21728604 0.5369888 -0.81512564
    outer loop
      vertex 16.480373 16.22234 25.530611
      vertex 12.011542 15.227026 26.066162
      vertex 12.582893 15.944284 26.386375
    endloop
  endfacet
  facet normal 0.058221616 0.8407204 0.5383302
    outer loop
      vertex 12.582893 15.944284 26.386375
      vertex 13.686707 13.216381 30.527212
      vertex 16.480373 16.22234 25.530611
    endloop
  endfacet
  facet normal 0.21728604 -0.5369888 0.81512564
    outer loop
      vertex 11.079412 10.91804 29.70813
      vertex 29.641161 12.242276 25.632551
      vertex 13.686707 13.216381 30.527212
    endloop
  endfacet
  facet normal -0.21728604 0.5369888 -0.81512564
    outer loop
      vertex 11.3907585 15.409112 26.351599
      vertex 11.226394 15.306713 26.327953
      vertex 10.122608 15.768763 26.926577
    endloop
  endfacet
  facet normal -0.21728604 0.5369888 -0.81512564
    outer loop
      vertex 9.969777 13.561872 25.51346
      vertex 11.1852255 14.712234 25.947296
      vertex 11.336968 14.632387 25.854246
    endloop
  endfacet
  facet normal -0.21728604 0.5369888 -0.81512564
    outer loop
      vertex 11.089061 14.841074 26.057808
      vertex 9.969777 13.561872 25.51346
      vertex 10.122608 15.768763 26.926577
    endloop
  endfacet
  facet normal -0.21728604 0.5369888 -0.81512564
    outer loop
      vertex 9.969777 13.561872 25.51346
      vertex 11.089061 14.841074 26.057808
      vertex 11.1852255 14.712234 25.947296
    endloop
  endfacet
  facet normal -0.21728604 0.5369888 -0.81512564
    outer loop
      vertex 11.521191 14.61369 25.79282
      vertex 9.969777 13.561872 25.51346
      vertex 11.336968 14.632387 25.854246
    endloop
  endfacet
  facet normal -0.21728604 0.5369888 -0.81512564
    outer loop
      vertex 11.089061 14.841074 26.057808
      vertex 10.122608 15.768763 26.926577
      vertex 11.063116 14.999293 26.168957
    endloop
  endfacet
  facet normal -0.21728604 0.5369888 -0.81512564
    outer loop
      vertex 11.063116 14.999293 26.168957
      vertex 10.122608 15.768763 26.926577
      vertex 11.111341 15.162804 26.263819
    endloop
  endfacet
  facet normal -0.21728604 0.5369888 -0.81512564
    outer loop
      vertex 11.226394 15.306713 26.327953
      vertex 11.111341 15.162804 26.263819
      vertex 10.122608 15.768763 26.926577
    endloop
  endfacet
  facet normal -0.21728604 0.5369888 -0.81512564
    outer loop
      vertex 28.781796 17.099949 22.829603
      vertex 27.505299 16.468086 22.753616
      vertex 27.353556 16.547932 22.846668
    endloop
  endfacet
  facet normal -0.21728604 0.5369888 -0.81512564
    outer loop
      vertex 9.969777 13.561872 25.51346
      vertex 11.521191 14.61369 25.79282
      vertex 11.709845 14.658989 25.772373
    endloop
  endfacet
  facet normal -0.21728604 0.5369888 -0.81512564
    outer loop
      vertex 28.781796 17.099949 22.829603
      vertex 21.810297 16.184305 24.084768
      vertex 26.224073 16.917477 23.3912
    endloop
  endfacet
  facet normal -0.21728604 0.5369888 -0.81512564
    outer loop
      vertex 28.544025 15.066583 21.553442
      vertex 27.579182 16.017515 22.437094
      vertex 28.781796 17.099949 22.829603
    endloop
  endfacet
  facet normal -0.21728604 0.5369888 -0.81512564
    outer loop
      vertex 11.579412 15.454411 26.33115
      vertex 11.3907585 15.409112 26.351599
      vertex 10.122608 15.768763 26.926577
    endloop
  endfacet
  facet normal -0.21728604 0.5369888 -0.81512564
    outer loop
      vertex 11.763634 15.435714 26.269726
      vertex 11.579412 15.454411 26.33115
      vertex 10.122608 15.768763 26.926577
    endloop
  endfacet
  facet normal -0.21728604 0.5369888 -0.81512564
    outer loop
      vertex 11.763634 15.435714 26.269726
      vertex 10.122608 15.768763 26.926577
      vertex 12.582893 15.944284 26.386375
    endloop
  endfacet
  facet normal -0.21728604 0.5369888 -0.81512564
    outer loop
      vertex 9.969777 13.561872 25.51346
      vertex 11.709845 14.658989 25.772373
      vertex 16.480373 16.22234 25.530611
    endloop
  endfacet
  facet normal -0.21728604 0.5369888 -0.81512564
    outer loop
      vertex 12.011542 15.227026 26.066162
      vertex 11.915378 15.355866 26.176674
      vertex 12.582893 15.944284 26.386375
    endloop
  endfacet
  facet normal -0.21728604 0.5369888 -0.81512564
    outer loop
      vertex 12.582893 15.944284 26.386375
      vertex 11.915378 15.355866 26.176674
      vertex 11.763634 15.435714 26.269726
    endloop
  endfacet
  facet normal -0.21728604 0.5369888 -0.81512564
    outer loop
      vertex 16.480373 16.22234 25.530611
      vertex 11.709845 14.658989 25.772373
      vertex 11.874208 14.761388 25.796019
    endloop
  endfacet
  facet normal -0.21728604 0.5369888 -0.81512564
    outer loop
      vertex 16.480373 16.22234 25.530611
      vertex 11.874208 14.761388 25.796019
      vertex 11.989262 14.905296 25.860153
    endloop
  endfacet
  facet normal -0.21728604 0.5369888 -0.81512564
    outer loop
      vertex 16.480373 16.22234 25.530611
      vertex 11.989262 14.905296 25.860153
      vertex 12.037486 15.068808 25.955015
    endloop
  endfacet
  facet normal -0.21728604 0.5369888 -0.81512564
    outer loop
      vertex 28.781796 17.099949 22.829603
      vertex 28.634787 14.977131 21.47032
      vertex 28.544025 15.066583 21.553442
    endloop
  endfacet
  facet normal 0.21728604 -0.5369888 0.81512564
    outer loop
      vertex 27.327887 14.189573 27.532036
      vertex 29.641161 12.242276 25.632551
      vertex 29.788172 14.365095 26.991835
    endloop
  endfacet
  facet normal -0.21728604 0.5369888 -0.81512564
    outer loop
      vertex 9.969777 13.561872 25.51346
      vertex 25.18313 14.654991 22.1782
      vertex 26.46911 14.73897 21.890722
    endloop
  endfacet
  facet normal -0.21728604 0.5369888 -0.81512564
    outer loop
      vertex 23.488232 14.598489 22.592783
      vertex 9.969777 13.561872 25.51346
      vertex 26.92689 15.744606 22.431187
    endloop
  endfacet
  facet normal -0.21728604 0.5369888 -0.81512564
    outer loop
      vertex 26.775146 15.824453 22.524239
      vertex 9.969777 13.561872 25.51346
      vertex 26.678982 15.953294 22.63475
    endloop
  endfacet
  facet normal -0.21728604 0.5369888 -0.81512564
    outer loop
      vertex 9.969777 13.561872 25.51346
      vertex 26.775146 15.824453 22.524239
      vertex 26.92689 15.744606 22.431187
    endloop
  endfacet
  facet normal -0.21728604 0.5369888 -0.81512564
    outer loop
      vertex 26.678982 15.953294 22.63475
      vertex 9.969777 13.561872 25.51346
      vertex 26.653038 16.111513 22.745897
    endloop
  endfacet
  facet normal 0.058221616 0.8407204 0.5383302
    outer loop
      vertex 26.224073 16.917477 23.3912
      vertex 23.256578 14.341109 27.7357
      vertex 27.327887 14.189573 27.532036
    endloop
  endfacet
  facet normal 0.058221616 0.8407204 0.5383302
    outer loop
      vertex 17.410358 13.924027 29.019348
      vertex 13.686707 13.216381 30.527212
      vertex 23.256578 14.341109 27.7357
    endloop
  endfacet
  facet normal 0.21728604 -0.5369888 0.81512564
    outer loop
      vertex 27.327887 14.189573 27.532036
      vertex 13.686707 13.216381 30.527212
      vertex 29.641161 12.242276 25.632551
    endloop
  endfacet
  facet normal 0.058221616 0.8407204 0.5383302
    outer loop
      vertex 23.256578 14.341109 27.7357
      vertex 13.686707 13.216381 30.527212
      vertex 27.327887 14.189573 27.532036
    endloop
  endfacet
  facet normal -0.21728604 0.5369888 -0.81512564
    outer loop
      vertex 9.969777 13.561872 25.51346
      vertex 21.810297 16.184305 24.084768
      vertex 28.781796 17.099949 22.829603
    endloop
  endfacet
  facet normal 0.058221616 0.8407204 0.5383302
    outer loop
      vertex 13.686707 13.216381 30.527212
      vertex 17.410358 13.924027 29.019348
      vertex 16.480373 16.22234 25.530611
    endloop
  endfacet
  facet normal 0.21728604 -0.5369888 0.81512564
    outer loop
      vertex 11.226421 13.040859 31.067415
      vertex 11.079412 10.91804 29.70813
      vertex 13.686707 13.216381 30.527212
    endloop
  endfacet
  facet normal -0.21728604 0.5369888 -0.81512564
    outer loop
      vertex 21.810297 16.184305 24.084768
      vertex 22.326593 16.639421 24.246964
      vertex 26.224073 16.917477 23.3912
    endloop
  endfacet
  facet normal 0.058221616 0.8407204 0.5383302
    outer loop
      vertex 23.256578 14.341109 27.7357
      vertex 26.224073 16.917477 23.3912
      vertex 22.326593 16.639421 24.246964
    endloop
  endfacet
  facet normal -0.21728604 0.5369888 -0.81512564
    outer loop
      vertex 26.653038 16.111513 22.745897
      vertex 9.969777 13.561872 25.51346
      vertex 26.701262 16.275023 22.84076
    endloop
  endfacet
  facet normal -0.21728604 0.5369888 -0.81512564
    outer loop
      vertex 27.169333 16.56663 22.908092
      vertex 9.969777 13.561872 25.51346
      vertex 28.781796 17.099949 22.829603
    endloop
  endfacet
  facet normal -0.21728604 0.5369888 -0.81512564
    outer loop
      vertex 26.98068 16.52133 22.92854
      vertex 9.969777 13.561872 25.51346
      vertex 27.169333 16.56663 22.908092
    endloop
  endfacet
  facet normal -0.21728604 0.5369888 -0.81512564
    outer loop
      vertex 26.816315 16.418932 22.904896
      vertex 9.969777 13.561872 25.51346
      vertex 26.98068 16.52133 22.92854
    endloop
  endfacet
  facet normal -0.21728604 0.5369888 -0.81512564
    outer loop
      vertex 26.701262 16.275023 22.84076
      vertex 9.969777 13.561872 25.51346
      vertex 26.816315 16.418932 22.904896
    endloop
  endfacet
  facet normal -0.058221616 -0.8407204 -0.5383302
    outer loop
      vertex 14.501809 24.986467 38.063835
      vertex 