solid OpenSCAD_Model
  facet normal -0.45347476 -0.5097003 0.7311404
    outer loop
      vertex 31.910782 30.352158 42.310127
      vertex 34.249813 14.027535 32.38047
      vertex 48.907524 27.559471 50.90514
    endloop
  endfacet
  facet normal -0.1214968 0.848045 0.5158083
    outer loop
      vertex 31.95613 30.40313 42.237015
      vertex 48.907524 27.559471 50.90514
      vertex 48.95287 27.61044 50.832024
    endloop
  endfacet
  facet normal -0.8908232 0.28518105 -0.353703
    outer loop
      vertex 31.910782 30.352158 42.310127
      vertex 31.95613 30.40313 42.237015
      vertex 55 50 0
    endloop
  endfacet
  facet normal 0.12151102 -0.84802914 -0.51583105
    outer loop
      vertex 34.249813 14.027535 32.38047
      vertex 34.295162 14.0785055 32.307358
      vertex 51.246555 11.234847 40.97548
    endloop
  endfacet
  facet normal 0.90243703 -0.4308218 0
    outer loop
      vertex 51.2919 11.285817 40.902367
      vertex 65 40 0
      vertex 65 40 0.09999943
    endloop
  endfacet
  facet normal -0.45347467 -0.5097004 0.7311404
    outer loop
      vertex 34.249813 14.027535 32.38047
      vertex 51.246555 11.234847 40.97548
      vertex 48.907524 27.559471 50.90514
    endloop
  endfacet
  facet normal -0.8945874 0.13159697 -0.42707804
    outer loop
      vertex 31.910782 30.352158 42.310127
      vertex 55 50 0
      vertex 34.249813 14.027535 32.38047
    endloop
  endfacet
  facet normal -0.84193844 0 -0.5395736
    outer loop
      vertex 34.295162 14.0785055 32.307358
      vertex 55 50 0
      vertex 55 40 0
    endloop
  endfacet
  facet normal 0.88295317 -0.14506854 0.44648498
    outer loop
      vertex 48.907524 27.559471 50.90514
      vertex 51.246555 11.234847 40.97548
      vertex 51.2919 11.285817 40.902367
    endloop
  endfacet
  facet normal 1 0 0
    outer loop
      vertex 65 40 0.09999943
      vertex 65 50 0
      vertex 65 50 0.09999943
    endloop
  endfacet
  facet normal 1 0 0
    outer loop
      vertex 65 50 0
      vertex 65 40 0.09999943
      vertex 65 40 0
    endloop
  endfacet
  facet normal -0.6478323 0.761783 0
    outer loop
      vertex 31.95613 30.40313 42.237015
      vertex 55 50 0.09999943
      vertex 55 50 0
    endloop
  endfacet
  facet normal -0.86212415 0.04283502 -0.5048832
    outer loop
      vertex 34.249813 14.027535 32.38047
      vertex 55 50 0
      vertex 34.295162 14.0785055 32.307358
    endloop
  endfacet
  facet normal -0.05085142 0.9159072 0.3981559
    outer loop
      vertex 31.95613 30.40313 42.237015
      vertex 48.95287 27.61044 50.832024
      vertex 55 50 0.09999943
    endloop
  endfacet
  facet normal 0 0.914866 0.40375772
    outer loop
      vertex 48.95287 27.61044 50.832024
      vertex 65 50 0.09999943
      vertex 55 50 0.09999943
    endloop
  endfacet
  facet normal 0.9534396 0 0.30158406
    outer loop
      vertex 48.95287 27.61044 50.832024
      vertex 65 40 0.09999943
      vertex 65 50 0.09999943
    endloop
  endfacet
  facet normal -0.121519566 0.8480197 0.5158445
    outer loop
      vertex 31.910782 30.352158 42.310127
      vertex 48.907524 27.559471 50.90514
      vertex 31.95613 30.40313 42.237015
    endloop
  endfacet
  facet normal 0 1 0
    outer loop
      vertex 65 50 0
      vertex 55 50 0.09999943
      vertex 65 50 0.09999943
    endloop
  endfacet
  facet normal 0 1 0
    outer loop
      vertex 55 50 0.09999943
      vertex 65 50 0
      vertex 55 50 0
    endloop
  endfacet
  facet normal 0.13561504 -0.83169585 -0.5384149
    outer loop
      vertex 34.295162 14.0785055 32.307358
      vertex 65 40 0
      vertex 51.2919 11.285817 40.902367
    endloop
  endfacet
  facet normal 0.12151314 -0.84802675 -0.51583445
    outer loop
      vertex 34.295162 14.0785055 32.307358
      vertex 51.2919 11.285817 40.902367
      vertex 51.246555 11.234847 40.97548
    endloop
  endfacet
  facet normal 0 -0.7799776 -0.62580746
    outer loop
      vertex 34.295162 14.0785055 32.307358
      vertex 55 40 0
      vertex 65 40 0
    endloop
  endfacet
  facet normal 0 0 -1
    outer loop
      vertex 55 40 0
      vertex 65 50 0
      vertex 65 40 0
    endloop
  endfacet
  facet normal 0 0 -1
    outer loop
      vertex 65 50 0
      vertex 55 40 0
      vertex 55 50 0
    endloop
  endfacet
  facet normal 0.9554695 -0.040861078 0.2922472
    outer loop
      vertex 48.95287 27.61044 50.832024
      vertex 51.2919 11.285817 40.902367
      vertex 65 40 0.09999943
    endloop
  endfacet
  facet normal 0.8829596 -0.14506121 0.44647458
    outer loop
      vertex 48.907524 27.559471 50.90514
      vertex 51.2919 11.285817 40.902367
      vertex 48.95287 27.61044 50.832024
    endloop
  endfacet
  facet normal -0.45347467 -0.017397339 0.89109933
    outer loop
      vertex 31.910782 -33.96593 21.411915
      vertex 51.246555 -17.715214 31.569035
      vertex 34.249813 -14.922525 22.974026
    endloop
  endfacet
  facet normal -0.31334522 -0.8903239 0.33036065
    outer loop
      vertex 31.910782 -33.96593 21.411915
      vertex 55 -50 0.09999943
      vertex 48.907524 -36.758617 30.006924
    endloop
  endfacet
  facet normal 0.35483664 0.82895356 -0.43235043
    outer loop
      vertex 34.295162 -14.920786 22.884914
      vertex 51.2919 -17.713474 31.479925
      vertex 65 -40 0
    endloop
  endfacet
  facet normal 0.85177237 0.5239121 0
    outer loop
      vertex 51.2919 -17.713474 31.479925
      vertex 65 -40 0.09999943
      vertex 65 -40 0
    endloop
  endfacet
  facet normal 0.9163783 0 0.4003134
    outer loop
      vertex 51.2919 -17.713474 31.479925
      vertex 65 -50 0.09999943
      vertex 65 -40 0.09999943
    endloop
  endfacet
  facet normal -0.45347467 -0.017397342 0.89109933
    outer loop
      vertex 31.910782 -33.96593 21.411915
      vertex 48.907524 -36.758617 30.006924
      vertex 51.246555 -17.715214 31.569035
    endloop
  endfacet
  facet normal 0 0.67405254 -0.73868346
    outer loop
      vertex 34.295162 -14.920786 22.884914
      vertex 65 -40 0
      vertex 55 -40 0
    endloop
  endfacet
  facet normal 0 -1 0
    outer loop
      vertex 55 -50 0
      vertex 65 -50 0.09999943
      vertex 55 -50 0.09999943
    endloop
  endfacet
  facet normal 0 -1 0
    outer loop
      vertex 65 -50 0.09999943
      vertex 55 -50 0
      vertex 65 -50 0
    endloop
  endfacet
  facet normal 0.12151022 0.9892678 0.08114464
    outer loop
      vertex 34.249813 -14.922525 22.974026
      vertex 51.246555 -17.715214 31.569035
      vertex 51.2919 -17.713474 31.479925
    endloop
  endfacet
  facet normal 0.890056 -0.06114968 0.45173106
    outer loop
      vertex 51.246555 -17.715214 31.569035
      vertex 65 -50 0.09999943
      vertex 51.2919 -17.713474 31.479925
    endloop
  endfacet
  facet normal 0.84275234 -0.14601305 0.51812035
    outer loop
      vertex 48.907524 -36.758617 30.006924
      vertex 65 -50 0.09999943
      vertex 51.246555 -17.715214 31.569035
    endloop
  endfacet
  facet normal -0.65218407 0.14120007 -0.74479425
    outer loop
      vertex 31.95613 -33.96419 21.322805
      vertex 34.295162 -14.920786 22.884914
      vertex 55 -40 0
    endloop
  endfacet
  facet normal 0.12150884 0.98926777 0.081147395
    outer loop
      vertex 34.249813 -14.922525 22.974026
      vertex 51.2919 -17.713474 31.479925
      vertex 34.295162 -14.920786 22.884914
    endloop
  endfacet
  facet normal 0 0 -1
    outer loop
      vertex 55 -50 0
      vertex 65 -40 0
      vertex 65 -50 0
    endloop
  endfacet
  facet normal 0 0 -1
    outer loop
      vertex 65 -40 0
      vertex 55 -50 0
      vertex 55 -40 0
    endloop
  endfacet
  facet normal -0.57039315 -0.8213718 0
    outer loop
      vertex 31.910782 -33.96593 21.411915
      vertex 55 -50 0
      vertex 55 -50 0.09999943
    endloop
  endfacet
  facet normal 0 -0.9143846 0.4048466
    outer loop
      vertex 48.907524 -36.758617 30.006924
      vertex 55 -50 0.09999943
      vertex 65 -50 0.09999943
    endloop
  endfacet
  facet normal -0.88294744 0.14507468 -0.4464943
    outer loop
      vertex 31.910782 -33.96593 21.411915
      vertex 34.295162 -14.920786 22.884914
      vertex 31.95613 -33.96419 21.322805
    endloop
  endfacet
  facet normal -0.8829437 0.14507478 -0.44650173
    outer loop
      vertex 34.295162 -14.920786 22.884914
      vertex 31.910782 -33.96593 21.411915
      vertex 34.249813 -14.922525 22.974026
    endloop
  endfacet
  facet normal 1 0 0
    outer loop
      vertex 65 -50 0.09999943
      vertex 65 -40 0
      vertex 65 -40 0.09999943
    endloop
  endfacet
  facet normal 1 0 0
    outer loop
      vertex 65 -40 0
      vertex 65 -50 0.09999943
      vertex 65 -50 0
    endloop
  endfacet
  facet normal -0.67916596 0 -0.7339847
    outer loop
      vertex 31.95613 -33.96419 21.322805
      vertex 55 -40 0
      vertex 55 -50 0
    endloop
  endfacet
  facet normal -0.7406076 -0.5488741 -0.387605
    outer loop
      vertex 31.910782 -33.96593 21.411915
      vertex 31.95613 -33.96419 21.322805
      vertex 55 -50 0
    endloop
  endfacet
  facet normal -0.04532424 -0.742778 0.6680019
    outer loop
      vertex -72.19449 32.832077 38.187733
      vertex -71.69076 19.947235 23.894741
      vertex -52.46714 19.63591 24.852898
    endloop
  endfacet
  facet normal 0.95228076 0.24263746 -0.18517129
    outer loop
      vertex -65 50 0
      vertex -52.96634 32.595028 39.07909
      vertex -52.46261 19.710188 24.786098
    endloop
  endfacet
  facet normal 0.019429073 -0.76852953 -0.6395193
    outer loop
      vertex -71.69076 19.947235 23.894741
      vertex -65 40 0
      vertex -52.46714 19.63591 24.852898
    endloop
  endfacet
  facet normal 0 0.91310656 0.407721
    outer loop
      vertex -75 50 0.09999943
      vertex -52.96634 32.595028 39.07909
      vertex -65 50 0.09999943
    endloop
  endfacet
  facet normal 0.82254446 0.5687008 0
    outer loop
      vertex -65 50 0
      vertex -65 50 0.09999943
      vertex -52.96634 32.595028 39.07909
    endloop
  endfacet
  facet normal 0.99862975 -0.016169192 0.049771104
    outer loop
      vertex -52.97087 32.520752 39.14589
      vertex -52.46261 19.710188 24.786098
      vertex -52.96634 32.595028 39.07909
    endloop
  endfacet
  facet normal -0.026167689 0.66934574 0.74249005
    outer loop
      vertex -72.19449 32.832077 38.187733
      vertex -52.97087 32.520752 39.14589
      vertex -52.96634 32.595028 39.07909
    endloop
  endfacet
  facet normal 0 0 -1
    outer loop
      vertex -75 40 0
      vertex -65 50 0
      vertex -65 40 0
    endloop
  endfacet
  facet normal 0 0 -1
    outer loop
      vertex -65 50 0
      vertex -75 40 0
      vertex -75 50 0
    endloop
  endfacet
  facet normal 0 -0.7660019 -0.64283836
    outer loop
      vertex -75 40 0
      vertex -65 40 0
      vertex -71.69076 19.947235 23.894741
    endloop
  endfacet
  facet normal -0.96460027 0.20643777 0.16410284
    outer loop
      vertex -75 50 0.09999943
      vertex -72.19449 32.832077 38.187733
      vertex -72.18996 32.906353 38.120934
    endloop
  endfacet
  facet normal 0.89233893 0 -0.451366
    outer loop
      vertex -65 40 0
      vertex -65 50 0
      vertex -52.46261 19.710188 24.786098
    endloop
  endfacet
  facet normal 0.32859132 -0.64255774 -0.69220465
    outer loop
      vertex -65 40 0
      vertex -52.46261 19.710188 24.786098
      vertex -52.46714 19.63591 24.852898
    endloop
  endfacet
  facet normal 0.99862975 -0.016168961 0.0497709
    outer loop
      vertex -52.97087 32.520752 39.14589
      vertex -52.46714 19.63591 24.852898
      vertex -52.46261 19.710188 24.786098
    endloop
  endfacet
  facet normal -0.04532424 -0.742778 0.6680019
    outer loop
      vertex -72.19449 32.832077 38.187733
      vertex -52.46714 19.63591 24.852898
      vertex -52.97087 32.520752 39.14589
    endloop
  endfacet
  facet normal -0.98665506 -0.16282445 0
    outer loop
      vertex -75 40 0
      vertex -71.69076 19.947235 23.894741
      vertex -75 40 0.09999943
    endloop
  endfacet
  facet normal -1 0 0
    outer loop
      vertex -75 40 0
      vertex -75 50 0.09999943
      vertex -75 50 0
    endloop
  endfacet
  facet normal -1 0 0
    outer loop
      vertex -75 50 0.09999943
      vertex -75 40 0
      vertex -75 40 0.09999943
    endloop
  endfacet
  facet normal 0 1 0
    outer loop
      vertex -65 50 0
      vertex -75 50 0.09999943
      vertex -65 50 0.09999943
    endloop
  endfacet
  facet normal 0 1 0
    outer loop
      vertex -75 50 0.09999943
      vertex -65 50 0
      vertex -75 50 0
    endloop
  endfacet
  facet normal -0.005687077 0.91189104 0.41039297
    outer loop
      vertex -75 50 0.09999943
      vertex -72.18996 32.906353 38.120934
      vertex -52.96634 32.595028 39.07909
    endloop
  endfacet
  facet normal -0.026167689 0.66934574 0.74249005
    outer loop
      vertex -72.19449 32.832077 38.187733
      vertex -52.96634 32.595028 39.07909
      vertex -72.18996 32.906353 38.120934
    endloop
  endfacet
  facet normal -0.9972982 0 0.07346017
    outer loop
      vertex -75 40 0.09999943
      vertex -72.19449 32.832077 38.187733
      vertex -75 50 0.09999943
    endloop
  endfacet
  facet normal -0.9935643 -0.099297084 0.05449792
    outer loop
      vertex -75 40 0.09999943
      vertex -71.69076 19.947235 23.894741
      vertex -72.19449 32.832077 38.187733
    endloop
  endfacet
  facet normal -0.026168274 -0.97793466 0.20726562
    outer loop
      vertex -72.19449 -73.11309 3.764061
      vertex -72.18996 -73.13392 3.66636
      vertex -52.97087 -73.424416 4.7222195
    endloop
  endfacet
  facet normal 0 -0.02060538 -0.9997877
    outer loop
      vertex -75 -70 0
      vertex -71.686226 -54.308655 -0.32339478
      vertex -65 -70 0
    endloop
  endfacet
  facet normal 0.01871325 -0.777841 -0.6281825
    outer loop
      vertex -72.18996 -73.13392 3.66636
      vertex -65 -70 0
      vertex -52.96634 -73.445244 4.6245174
    endloop
  endfacet
  facet normal 0.29925266 -0.20548642 -0.9317849
    outer loop
      vertex -65 -70 0
      vertex -52.46261 -54.61998 0.63476276
      vertex -52.96634 -73.445244 4.6245174
    endloop
  endfacet
  facet normal -0.04532423 0.20827845 0.97701883
    outer loop
      vertex -71.69076 -54.287827 -0.22569275
      vertex -52.97087 -73.424416 4.7222195
      vertex -52.46714 -54.59915 0.7324648
    endloop
  endfacet
  facet normal -0.04532428 0.2082784 0.97701883
    outer loop
      vertex -72.19449 -73.11309 3.764061
      vertex -52.97087 -73.424416 4.7222195
      vertex -71.69076 -54.287827 -0.22569275
    endloop
  endfacet
  facet normal -0.8652821 0.5012852 0
    outer loop
      vertex -75 -60 0
      vertex -75 -60 0.09999943
      vertex -71.69076 -54.287827 -0.22569275
    endloop
  endfacet
  facet normal -0.026168175 -0.9779351 0.2072637
    outer loop
      vertex -72.18996 -73.13392 3.66636
      vertex -52.96634 -73.445244 4.6245174
      vertex -52.97087 -73.424416 4.7222195
    endloop
  endfacet
  facet normal 0.026168175 0.9779351 -0.2072637
    outer loop
      vertex -71.69076 -54.287827 -0.22569275
      vertex -52.46714 -54.59915 0.7324648
      vertex -71.686226 -54.308655 -0.32339478
    endloop
  endfacet
  facet normal -0.7912164 -0.6045491 0.09217929
    outer loop
      vertex -75 -70 0.09999943
      vertex -72.18996 -73.13392 3.66636
      vertex -72.19449 -73.11309 3.764061
    endloop
  endfacet
  facet normal 0.9986298 -0.016173739 0.04976889
    outer loop
      vertex -52.97087 -73.424416 4.7222195
      vertex -52.96634 -73.445244 4.6245174
      vertex -52.46261 -54.61998 0.63476276
    endloop
  endfacet
  facet normal 0.9986298 -0.016173739 0.04976889
    outer loop
      vertex -52.97087 -73.424416 4.7222195
      vertex -52.46261 -54.61998 0.63476276
      vertex -52.46714 -54.59915 0.7324648
    endloop
  endfacet
  facet normal 0 -0.76014465 -0.64975387
    outer loop
      vertex -75 -70 0
      vertex -65 -70 0
      vertex -72.18996 -73.13392 3.66636
    endloop
  endfacet
  facet normal -0.7445313 -0.6675876 0
    outer loop
      vertex -75 -70 0
      vertex -72.18996 -73.13392 3.66636
      vertex -75 -70 0.09999943
    endloop
  endfacet
  facet normal 0.050564803 0 -0.99872077
    outer loop
      vertex -65 -70 0
      vertex -65 -60 0
      vertex -52.46261 -54.61998 0.63476276
    endloop
  endfacet
  facet normal 0.026168175 0.9779351 -0.2072637
    outer loop
      vertex -71.686226 -54.308655 -0.32339478
      vertex -52.46714 -54.59915 0.7324648
      vertex -52.46261 -54.61998 0.63476276
    endloop
  endfacet
  facet normal -0.2641192 0.20672706 0.94207484
    outer loop
      vertex -75 -60 0.09999943
      vertex -72.19449 -73.11309 3.764061
      vertex -71.69076 -54.287827 -0.22569275
    endloop
  endfacet
  facet normal 0.049809363 0.0017647487 -0.9987572
    outer loop
      vertex -71.686226 -54.308655 -0.32339478
      vertex -52.46261 -54.61998 0.63476276
      vertex -65 -60 0
    endloop
  endfacet
  facet normal 0.048310835 0 -0.99883235
    outer loop
      vertex -71.686226 -54.308655 -0.32339478
      vertex -65 -60 0
      vertex -65 -70 0
    endloop
  endfacet
  facet normal -1 0 0
    outer loop
      vertex -75 -70 0
      vertex -75 -60 0.09999943
      vertex -75 -60 0
    endloop
  endfacet
  facet normal -1 0 0
    outer loop
      vertex -75 -60 0.09999943
      vertex -75 -70 0
      vertex -75 -70 0.09999943
    endloop
  endfacet
  facet normal -0.79398316 0 0.6079398
    outer loop
      vertex -75 -70 0.09999943
      vertex -72.19449 -73.11309 3.764061
      vertex -75 -60 0.09999943
    endloop
  endfacet
  facet normal -0.097129636 0 -0.99527174
    outer loop
      vertex -75 -70 0
      vertex -75 -60 0
      vertex -71.686226 -54.308655 -0.32339478
    endloop
  endfacet
  facet normal -0.8586496 0.49172735 -0.14465512
    outer loop
      vertex -75 -60 0
      vertex -71.69076 -54.287827 -0.22569275
      vertex -71.686226 -54.308655 -0.32339478
    endloop
  endfacet
endsolid OpenSCAD_Model
